<?xml version="1.0" encoding="UTF-8"?>
<svg id="Layer_2" data-name="Layer 2" xmlns="http://www.w3.org/2000/svg" viewBox="0 0 397.46 296.07">
  <defs>
    <style>
      .cls-1 {
        fill: #152a2c;
      }

      .cls-2 {
        fill: #a6aebf;
      }
    </style>
  </defs>
  <g id="Layer_1-2" data-name="Layer 1">
    <g>
      <path class="cls-2" d="M189.86,296.07c-5.72,0-11.67-.81-17.49-2.92-13.56-4.89-23.79-15.9-30.41-32.72-2.56-.68-13.37-3.87-26.94-12.77-13.96-9.15-33.5-26.32-47.55-56.2-1.69-.09-7.08-.03-13.81,3.83-13.68,7.84-22.23,25.01-27,38.04-.2.66-2.51,7.77-13.68,22.34l-1.41,1.83-.51-2.25c-.05-.21-4.63-21.13-.95-46.13,2.16-14.71,6.72-27.94,13.54-39.34,8.44-14.11,20.39-25.41,35.52-33.59.54-3.87,4.31-26.37,21.57-43.37,6.84-6.74,15.01-11.86,24.3-15.23-.37-3.44-1.06-16.12,6.67-30.81,5.2-9.89,13.17-18.62,23.67-25.94,13.06-9.11,30.12-16.06,50.7-20.66l.78-.17.4.69c.24.43,2.15,4.42-5.61,13.74-1.2,1.43-3.04,3.29-5.38,5.63-12.59,12.62-36,36.08-23.19,58.97,2.27,1.32,19.02,11.23,36.25,25.61,24.57,20.51,38.53,40.01,41.5,57.94,3.62,1.23,20.7,7.87,30.14,26.66,8.67,17.27,8.15,39.36-1.55,65.65l-1.01,2.75-1.01-2.75c-.03-.09-3.55-9.57-8.71-19.28-6.29-11.82-12.3-18.97-17.48-20.78-.59,2.58-2.45,9.04-7.37,16.39-5.65,8.44-16.55,19.64-36.57,25.52.58,1.17,2.02,3.45,5.46,6.7,4.77,4.51,14.48,11.83,33.63,21.15l1.86.91-1.81,1.01c-.89.5-17.43,9.57-36.52,9.57ZM66.61,189.27c1.04,0,1.65.09,1.73.1l.57.09.24.52c13.83,29.72,33.17,46.75,46.96,55.81,14.95,9.82,26.78,12.65,26.89,12.67l.56.13.21.53c6.38,16.5,16.24,27.26,29.32,31.98,20.66,7.46,43.7-2.33,50.35-5.55-36.24-17.98-38.61-28.89-38.69-29.36l-.18-.97.95-.26c20.06-5.58,30.88-16.61,36.44-24.87,6.03-8.97,7.33-16.73,7.34-16.8l.18-1.12,1.11.24c12.34,2.64,24.22,30.11,27.77,39.01,8.54-24.49,8.77-45.06.69-61.18-9.93-19.81-29.3-25.74-29.49-25.8l-.66-.19-.1-.68c-1.83-12.09-10.4-31.84-40.86-57.27-18.3-15.28-36.02-25.44-36.2-25.54l-.26-.15-.15-.26c-6.04-10.57-5.41-22.53,1.88-35.54,6.02-10.74,15.34-20.09,21.51-26.27,2.21-2.21,4.12-4.13,5.25-5.49,4.86-5.83,5.51-9.13,5.49-10.52-19.77,4.53-36.17,11.26-48.77,20.02-10.21,7.11-17.96,15.56-23.01,25.11-6.89,13.02-7.2,25.63-6.4,30.48l.15.9-.86.3c-9.32,3.26-17.51,8.31-24.32,15.02-18.28,18.01-20.99,42.39-21.01,42.63l-.06.57-.51.27c-15,8.01-26.83,19.12-35.16,33.02-6.67,11.14-11.14,24.1-13.27,38.51-2.92,19.78-.59,36.97.47,43.06,9.92-13.28,11.85-19.67,11.87-19.73l.02-.07c4.91-13.44,13.79-31.17,28.14-39.3,6.2-3.51,11.31-4.05,13.86-4.05Z"/>
      <path class="cls-2" d="M61.81,130.96l-.72-.04c0-.11-1.05-11.98-30.46-11.98h-.43l-.31-.3c-.09-.09-9.49-8.86-23.54-12.25-.19-.04-5.21-1.23-6.32-7.88l-.04-.24.06-.23c.07-.26,1.84-6.53,6.08-13.53,5.66-9.34,13.05-15.42,21.37-17.59,15.33-4,33.76,4.72,54.75,25.9l.84.85-.94.75c-.15.12-16.48,12.24-20.36,36.53ZM31.06,116.78c20.77.08,28.14,5.99,30.76,10.13,4.18-19.53,14.88-30.45,18.1-33.37-20.07-20-37.51-28.24-51.85-24.51-17.86,4.65-25.1,26.88-25.86,29.38.94,5.02,4.6,5.88,4.63,5.89,13.34,3.22,22.4,10.86,24.21,12.49Z"/>
      <g>
        <path class="cls-2" d="M124.73,203.81l23.09,18.64s1.79,3.56-.96,6.43c-2.74,2.87-12.22,15.13-12.22,15.13,0,0-2.44,3.54-5.56.59-3.13-2.95-23.34-18.85-23.34-18.85,0,0-2.1-2.12-.03-4.69,2.07-2.57,13.05-16.16,13.05-16.16,0,0,2.33-2.36,5.98-1.11Z"/>
        <path class="cls-2" d="M131.61,246.05c-.93,0-1.84-.42-2.72-1.25-3.08-2.91-23.12-18.68-23.32-18.83-.05-.04-2.27-2.35-.07-5.07l13.05-16.16c.12-.12,2.51-2.49,6.28-1.19l.08.05,23.13,18.68.03.05s1.84,3.77-1,6.74c-2.7,2.83-12.11,14.99-12.2,15.11-.04.06-1.16,1.67-2.92,1.85-.11.01-.22.02-.33.02ZM122.6,203.71c-2.24,0-3.59,1.32-3.66,1.39l-13.03,16.14c-1.9,2.35-.07,4.25.01,4.33.18.14,20.23,15.92,23.34,18.84.86.81,1.74,1.18,2.62,1.09,1.5-.16,2.53-1.62,2.54-1.63.1-.13,9.53-12.32,12.25-15.17,2.43-2.55,1.14-5.63.93-6.07l-23-18.57c-.72-.24-1.39-.34-2-.34Z"/>
      </g>
      <g>
        <path class="cls-2" d="M66.57,142.81h16.49l-3.96,36.6s-3.96,3.3-9.23-.33l-3.3-36.27Z"/>
        <path class="cls-2" d="M74.85,181.04c-1.47,0-3.22-.42-5.13-1.74l-.1-.07v-.13s-3.34-36.56-3.34-36.56h17.08l-4,37.01-.08.07s-1.76,1.42-4.42,1.42ZM70.12,178.93c4.59,3.08,8.14.76,8.72.34l3.91-36.18h-15.89l3.26,35.85Z"/>
      </g>
      <g>
        <path class="cls-2" d="M119.78,152.71h15.17s8.9,4.95,1.98,42.86l-21.76-.33v-34.29s-1.98-3.3,4.62-8.24Z"/>
        <path class="cls-2" d="M137.15,195.84l-22.26-.34v-34.49c-.27-.53-1.54-3.83,4.72-8.53l.07-.05h15.33l.06.03c.37.21,8.99,5.47,2.11,43.15l-.04.23ZM115.43,194.97l21.27.32c3.5-19.27,2.8-29.76,1.6-35.17-1.19-5.35-3.09-6.91-3.43-7.15h-15c-6.2,4.68-4.49,7.8-4.47,7.84l.04.06v.07s0,34.02,0,34.02Z"/>
      </g>
      <g>
        <path class="cls-2" d="M92.38,157.35s4.95-2.97,7.58.33l.33,4.62h2.31v5.93s2.64,1.32,1.65,13.85c0,0,.99,6.59,3.63,9.23,2.64,2.64-2.64,19.78-2.64,19.78,0,0-13.19,2.97-18.13-.66s.33-36.27.33-36.27l2.97-1.65v-9.56l1.98-5.6Z"/>
        <path class="cls-2" d="M95.14,212.51c-3.13,0-6.26-.44-8.2-1.86-5.02-3.68,0-35.19.22-36.53l.02-.13,2.94-1.64.02-9.49,2.01-5.7.08-.05c.05-.03,5.18-3.05,7.93.39l.05.07.32,4.45h2.33v6.07c.57.49,2.51,3,1.65,13.97.08.48,1.09,6.6,3.55,9.05,2.72,2.72-2.35,19.35-2.57,20.05l-.05.15-.15.03c-.33.07-5.24,1.16-10.15,1.16ZM87.68,174.33c-.35,2.25-5.02,32.5-.42,35.88,4.51,3.31,16.28.96,17.76.65,1.48-4.84,4.71-17.31,2.66-19.36-2.67-2.67-3.66-9.11-3.7-9.38v-.03s0-.03,0-.03c.95-12.02-1.48-13.57-1.51-13.59l-.14-.08v-.16s0-5.66,0-5.66h-2.29l-.34-4.78c-2.29-2.76-6.46-.6-7.1-.25l-1.93,5.47v9.67l-2.99,1.66Z"/>
      </g>
      <g>
        <path class="cls-2" d="M167.93,184.91s6.76,10.03,15.57,13.27l-21.75,27.78s-8.87-12.14-17.63-14.91l13.01-17.88s7.01,3.9,10.8-8.25Z"/>
        <path class="cls-2" d="M161.74,226.4l-.21-.29c-.09-.12-8.92-12.1-17.49-14.81l-.36-.11,13.37-18.38.21.12s2.11,1.14,4.54.16c2.5-1,4.48-3.78,5.87-8.26l.17-.54.31.47c.07.1,6.81,10,15.44,13.16l.35.13-22.2,28.35ZM144.56,210.9c7.87,2.71,15.81,12.78,17.2,14.61l21.3-27.21c-7.56-2.95-13.62-10.83-15.04-12.79-1.44,4.34-3.47,7.06-6.03,8.09-2.23.89-4.15.2-4.78-.09l-12.65,17.4Z"/>
      </g>
      <g>
        <path class="cls-2" d="M94.71,88.37s-9.87,11.32-8.88,17.79c0,0-7.61,6.5-9.88,14.43-2.27,7.92-7.83,8.71-7.83,8.71l20.46,13.29,25.3-41.35s-3.89,1.84-10.46-5.04-8.71-7.83-8.71-7.83Z"/>
        <path class="cls-2" d="M88.67,142.96l-21.3-13.84.71-.1s1.37-.21,2.97-1.35c1.48-1.06,3.49-3.16,4.64-7.16,2.11-7.38,8.89-13.61,9.85-14.46-.83-6.54,8.56-17.4,8.96-17.86l.13-.15.18.08c.09.04,2.25,1.05,8.79,7.89,6.33,6.62,10.12,5,10.16,4.98l.8-.37-.46.75-25.44,41.58ZM68.8,129.41l19.7,12.8,24.8-40.53c-1.43.23-4.96.06-10.07-5.29-5.42-5.67-7.82-7.3-8.45-7.67-1.2,1.42-9.57,11.55-8.67,17.4l.02.15-.11.1c-.08.06-7.58,6.55-9.8,14.3-1.86,6.49-5.85,8.29-7.41,8.75Z"/>
      </g>
      <g>
        <path class="cls-2" d="M143.99,238.06l3.63,1.98s12.53-7.25,23.74.66c0,0,2.31-4.62,5.28-3.3l2.97,1.32s.99,2.31-2.64,6.59l1.65,4.29s-10.88,14.18-24.07,3.96c0,0-10.88-4.62-8.9-9.89s-1.65-5.6-1.65-5.6Z"/>
        <path class="cls-2" d="M164.38,257.53c-3.41,0-6.76-1.25-9.97-3.74-.78-.34-11.03-4.86-9.02-10.22.7-1.87.76-3.29.18-4.22-.04-.07-.09-.14-.14-.2l-2.71-1.48,1.3.12s1.04.1,1.76.94l1.84,1c1.38-.74,13.11-6.64,23.64.57.57-1.02,2.72-4.37,5.48-3.15l3.06,1.36.04.1c.04.1.99,2.47-2.58,6.75l1.65,4.28-.09.12c-.05.07-5.21,6.69-12.63,7.65-.61.08-1.21.12-1.81.12ZM146.3,239.63c.37,1.04.24,2.43-.41,4.13-1.86,4.97,8.65,9.5,8.76,9.55l.06.03c3.67,2.85,7.51,4.04,11.41,3.53,6.66-.86,11.46-6.44,12.19-7.33l-1.65-4.29.1-.12c3.05-3.61,2.74-5.76,2.62-6.22l-2.86-1.27c-2.69-1.2-4.9,3.13-4.92,3.17l-.14.28-.26-.18c-10.93-7.72-23.32-.72-23.45-.65l-.13.08-1.32-.72Z"/>
      </g>
      <g>
        <path class="cls-2" d="M105.64,152.42s-6.52.03-6.44-8.22l4.54-3.19s-2.68-5.81,2.49-12.01c5.16-6.19,26.2-23.13,26.2-23.13l12.53,15.12-25.8,23.59s-2,4.22-8.06,3.84c-6.06-.38-5.46,4-5.46,4Z"/>
        <path class="cls-2" d="M105.64,152.69c-.15,0-2.6-.03-4.51-1.96-1.48-1.49-2.22-3.69-2.2-6.54v-.14s4.48-3.15,4.48-3.15c-.19-.49-.61-1.78-.63-3.58-.02-2.08.52-5.24,3.24-8.5,5.12-6.14,26.03-23,26.24-23.17l.21-.17,12.86,15.52-.19.17-25.76,23.56c-.26.49-2.48,4.31-8.29,3.95-2.03-.12-3.5.28-4.36,1.2-.99,1.06-.82,2.49-.82,2.5l.04.3h-.31s0,0,0,0ZM99.47,144.34c0,2.62.68,4.65,2.03,6.01,1.4,1.42,3.17,1.72,3.85,1.78,0-.55.1-1.68.97-2.61.97-1.05,2.59-1.51,4.79-1.37,5.79.36,7.72-3.52,7.8-3.69l.06-.08,25.61-23.42-12.19-14.71c-2.2,1.78-21.14,17.15-25.96,22.93-2.61,3.13-3.13,6.14-3.12,8.13.02,2.15.66,3.58.67,3.6l.09.2-4.61,3.24Z"/>
      </g>
      <g>
        <g>
          <path class="cls-2" d="M144.39,138.35s-4.41,38.24,12.75,42.65h14.22s16.18,5.88,8.82-41.18l-27-1.11-8.79-.36Z"/>
          <path class="cls-2" d="M172.93,183.12c-.73,0-1.37-.1-1.87-.24h-14.17l-.23-.06c-18.54-4.77-14.34-43.07-14.15-44.7l.2-1.74,39.09,1.61.24,1.53c3.54,22.64,2.23,36.66-3.88,41.69-1.78,1.46-3.69,1.91-5.23,1.91ZM157.38,179.1h14.3l.31.11c.05.02,1.96.61,3.83-.98,2.73-2.32,6.65-10.16,2.71-36.6l-32.45-1.33c-.98,11.16-.57,35.45,11.29,38.8Z"/>
        </g>
        <path class="cls-2" d="M172.66,140.39l-3.6-1.15c2.71-8.46,2.72-15.16.05-19.39-2.05-3.25-5.14-4.26-6.33-4.53-2.11,1.11-10.56,6.68-7.74,23.57l-3.73.62c-3.68-21.97,9.93-27.69,10.51-27.92l.45-.18.48.06c.24.03,5.97.78,9.5,6.28,3.39,5.28,3.52,12.9.4,22.64Z"/>
      </g>
      <g>
        <g>
          <path class="cls-2" d="M140.54,83.58s-9.35,6.91-2.87,19.17l-26.29-6.91,1.83-12.2,27.34-.06Z"/>
          <path class="cls-2" d="M138.2,103.17l-27.12-7.13,1.9-12.67,28.39-.06-.66.49c-.37.28-9.09,6.93-2.8,18.83l.29.54ZM111.68,95.64l25.47,6.7c-5.07-10.19.74-16.71,2.66-18.49l-26.37.06-1.76,11.73Z"/>
        </g>
        <path class="cls-2" d="M137.88,102.93l-.41-.35c7.74-9.24,2.89-18.78,2.84-18.87l.48-.25c.05.1,5.08,9.94-2.91,19.47Z"/>
      </g>
      <g>
        <g>
          <path class="cls-2" d="M206.11,235.26s-11.53-1.55-15.42,11.75l-14.05-23.27,9.81-7.48,19.66,19Z"/>
          <path class="cls-2" d="M190.78,247.68l-14.49-24.01,10.19-7.77,20.41,19.73-.81-.11c-.46-.06-11.35-1.36-15.12,11.56l-.17.59ZM177,223.81l13.61,22.55c3.46-10.84,12.19-11.47,14.79-11.41l-18.96-18.33-9.43,7.19Z"/>
        </g>
        <path class="cls-2" d="M190.72,247.28l-.06-.54c12-1.24,15.16-11.46,15.19-11.56l.52.15c-.03.11-3.28,10.67-15.65,11.95Z"/>
      </g>
      <g>
        <path class="cls-2" d="M218.62,183.66s4.21-2.49,7.29,2.89l-1.73,3.79s3.94,2.75,2.94,8.73c-1,5.97-8.21,24.93-8.21,24.93l-13.85-5.05,7.78-25.08s-.3-3.49,3.77-5.55c4.07-2.05,2.02-4.67,2.02-4.67Z"/>
        <path class="cls-2" d="M219.06,224.34l-14.35-5.23,7.84-25.28c-.02-.48.02-3.79,3.92-5.75,1.35-.68,2.14-1.49,2.34-2.39.23-1.04-.4-1.86-.41-1.87l-.19-.24.27-.16c.07-.04,1.7-.99,3.72-.45,1.55.41,2.87,1.57,3.94,3.44l.07.12-1.7,3.73c.78.65,3.77,3.53,2.88,8.85-.99,5.93-8.15,24.8-8.23,24.99l-.09.25ZM205.39,218.78l13.36,4.87c.85-2.26,7.18-19.12,8.1-24.63.96-5.74-2.79-8.44-2.83-8.46l-.18-.13,1.77-3.87c-.98-1.67-2.17-2.7-3.54-3.06-1.36-.36-2.56.05-3.06.27.22.39.53,1.14.33,2.05-.24,1.07-1.12,2-2.62,2.75-3.85,1.94-3.63,5.15-3.62,5.28v.05s-.01.05-.01.05l-7.7,24.83Z"/>
      </g>
      <g>
        <path class="cls-2" d="M190.89,172.35l16.25,2.8-10.11,35.39s-4.46,2.58-9.04-1.89l2.91-36.3Z"/>
        <path class="cls-2" d="M193.85,211.54c-1.7,0-3.88-.57-6.05-2.69l-.09-.09v-.13s2.94-36.6,2.94-36.6l16.83,2.9-10.22,35.79-.09.05s-1.36.76-3.31.76ZM188.27,208.55c4.04,3.86,7.88,2.15,8.53,1.81l10-35-15.66-2.7-2.87,35.88Z"/>
      </g>
      <g>
        <path class="cls-2" d="M220.59,172.75s-2.14,3.73-5.05,2.55l-1.9-2.88-1.5.84-2.16-3.86s-2.2.1-6.12-8.41c0,0-3.04-3.93-5.72-4.68s-5.49-13.83-5.49-13.83c0,0,7.5-6.73,12.03-6.18s12.99,23.71,12.99,23.71l-1.33,2.15,3.48,6.22.75,4.37Z"/>
        <path class="cls-2" d="M216.68,175.8c-.4,0-.81-.08-1.24-.25l-.08-.03-1.8-2.74-1.52.85-2.23-3.98c-.64-.13-2.78-1.15-6.18-8.52-.26-.33-3.11-3.87-5.56-4.57-2.75-.78-5.39-12.68-5.68-14.03l-.03-.15.12-.1c.31-.28,7.64-6.81,12.25-6.24,4.65.57,12.87,22.93,13.22,23.88l.04.12-1.31,2.13,3.44,6.17.77,4.46-.05.08s-1.7,2.91-4.15,2.91ZM215.72,175.08c2.4.9,4.27-1.87,4.59-2.38l-.73-4.22-3.54-6.32,1.34-2.18c-2.38-6.48-9.16-22.97-12.73-23.41-4.07-.5-10.74,5.16-11.7,6.01.81,3.7,3.23,12.9,5.26,13.47,2.73.77,5.74,4.61,5.86,4.78l.03.05c3.72,8.08,5.85,8.25,5.87,8.25h.15s.09.14.09.14l2.03,3.62,1.48-.83,1.99,3.02Z"/>
      </g>
      <g>
        <path class="cls-2" d="M171,107.7l-2.06-2.08s-9.97,2.39-15.98-5.25c0,0-2.5,2.67-4.25,1.17l-1.75-1.5s-.2-1.77,3.12-3.94l-.25-3.24s10.25-7.42,17.14,2.18c0,0,6.45,5.33,4.04,8.51s-.01,4.14-.01,4.14Z"/>
        <path class="cls-2" d="M172.11,108.43l-1.21-.48s-.71-.29-1.04-1.02l-1-1.01c-1.27.26-10.26,1.76-15.91-5.14-.68.64-2.78,2.36-4.4.97l-1.83-1.56v-.11c-.02-.08-.19-1.91,3.1-4.11l-.25-3.24.12-.09c.2-.14,4.91-3.51,10.18-2.65,2.86.47,5.32,2.1,7.31,4.87.52.44,6.54,5.59,4.06,8.86-.83,1.09-1.16,2.04-.97,2.76.01.05.03.1.05.14l1.8,1.81ZM169.03,105.32l.65.65c.02-.75.4-1.62,1.13-2.58,2.23-2.94-3.94-8.09-4-8.14l-.05-.05c-1.91-2.66-4.25-4.23-6.98-4.68-4.58-.75-8.89,1.95-9.66,2.47l.25,3.25-.13.09c-2.68,1.75-2.97,3.21-3,3.59l1.65,1.41c1.53,1.31,3.85-1.13,3.88-1.15l.21-.23.19.25c5.83,7.41,15.61,5.18,15.7,5.15l.15-.04Z"/>
      </g>
      <g>
        <path class="cls-2" d="M200.88,130.71l-8.14,5.92s-1.92-.55-4.05-3.67-10.92-15.02-10.92-15.02c0,0-2.5-3.24-1.14-3.84s8.23-5.98,8.23-5.98c0,0,1-.34,2.85,2.21s11.66,16.04,11.66,16.04c0,0,1.76,2.61,1.51,4.35Z"/>
        <path class="cls-2" d="M192.79,136.93l-.13-.04c-.08-.02-2.04-.61-4.2-3.78-2.1-3.08-10.82-14.89-10.91-15.01-.19-.24-1.86-2.46-1.56-3.63.07-.29.26-.5.53-.62,1.32-.58,8.11-5.9,8.17-5.95l.08-.04c.12-.04,1.24-.33,3.15,2.31l11.66,16.04c.08.12,1.82,2.73,1.55,4.55l-.02.11-8.34,6.06ZM184.98,108.37c-.7.55-6.91,5.39-8.23,5.97-.12.05-.19.14-.22.26-.18.69.8,2.31,1.47,3.17.09.12,8.82,11.94,10.93,15.03,1.74,2.55,3.35,3.34,3.78,3.52l7.93-5.76c.15-1.62-1.46-4.03-1.48-4.05l-11.65-16.03c-1.47-2.03-2.34-2.12-2.52-2.11Z"/>
      </g>
      <g>
        <path class="cls-2" d="M184.07,262.31s-5.92,5.1-5.89,8.51c0,0-4.4,2.79-6.16,6.71s-4.68,3.91-4.68,3.91l9.56,8.36,16.09-19.44s-2.14.66-5.02-3.37c-2.88-4.03-3.91-4.68-3.91-4.68Z"/>
        <path class="cls-2" d="M176.93,290.19l-10.31-9.02h.72c.11,0,2.78-.06,4.43-3.75,1.62-3.62,5.39-6.25,6.14-6.74.13-3.48,5.74-8.36,5.98-8.57l.15-.13.17.11s1.1.72,3.98,4.75c2.71,3.79,4.7,3.27,4.72,3.27l.83-.24-.55.67-16.27,19.65ZM167.97,281.63l8.9,7.79,15.52-18.75c-.9-.08-2.61-.67-4.64-3.51-2.19-3.06-3.3-4.15-3.68-4.48-.95.86-5.66,5.23-5.63,8.16v.15s-.13.08-.13.08c-.04.03-4.36,2.79-6.06,6.59-1.33,2.96-3.3,3.77-4.3,3.99Z"/>
      </g>
      <g>
        <path class="cls-2" d="M188.75,289.02l.72-9.99,22.01,4s1.83,2.54-.6,5.58l-22.13.41Z"/>
        <path class="cls-2" d="M188.46,289.3l.77-10.59,22.42,4.08.06.09s1.91,2.75-.61,5.91l-.08.1h-.13s-22.43.42-22.43.42ZM189.72,279.35l-.68,9.4,21.71-.4c1.92-2.5.84-4.62.57-5.07l-21.6-3.93Z"/>
      </g>
      <g>
        <path class="cls-2" d="M169.66,275.72l-1.75-1.77s-8.48,2.03-13.58-4.46c0,0-2.13,2.27-3.61,1l-1.49-1.27s-.17-1.5,2.66-3.35l-.21-2.76s8.72-6.31,14.57,1.86c0,0,5.48,4.53,3.44,7.24-2.05,2.7-.01,3.52-.01,3.52Z"/>
        <path class="cls-2" d="M170.77,276.45l-1.21-.48s-.61-.25-.91-.88l-.83-.84c-1.16.23-8.73,1.45-13.52-4.36-.62.57-2.38,1.98-3.76.8l-1.57-1.34v-.1c-.02-.07-.17-1.64,2.63-3.52l-.21-2.75.12-.09c.17-.12,4.19-2.99,8.69-2.26,2.44.4,4.54,1.79,6.24,4.15.47.4,5.58,4.78,3.45,7.59-.69.92-.98,1.71-.81,2.31.01.04.02.08.04.11l1.66,1.67ZM167.99,273.65l.5.51c.05-.63.37-1.34.96-2.12,1.87-2.47-3.34-6.82-3.39-6.87l-.05-.05c-1.61-2.25-3.6-3.58-5.91-3.96-3.85-.62-7.46,1.61-8.16,2.08l.21,2.76-.13.09c-2.22,1.45-2.5,2.66-2.53,3l1.39,1.19c1.27,1.09,3.22-.95,3.24-.98l.21-.23.19.25c4.94,6.28,13.23,4.39,13.31,4.37l.15-.04Z"/>
      </g>
      <g>
        <path class="cls-2" d="M56.5,144.14s4.33-.06,4.33,5.42l-3,2.15s1.82,3.84-1.58,7.99c-3.39,4.15-17.25,15.52-17.25,15.52l-8.41-9.96,16.98-15.82s1.3-2.81,5.33-2.6,3.6-2.69,3.6-2.69Z"/>
        <path class="cls-2" d="M38.97,175.6l-8.75-10.36,17.13-15.97c.21-.4,1.66-2.91,5.56-2.71,1.32.07,2.27-.2,2.81-.79.62-.68.51-1.59.51-1.59l-.04-.3h.31c.07,0,1.75-.01,3.07,1.29,1.01,1,1.53,2.48,1.53,4.39v.14l-2.94,2.11c.32.88,1.31,4.39-1.69,8.06-3.37,4.12-16.72,15.09-17.29,15.56l-.21.17ZM30.96,165.28l8.07,9.56c1.74-1.43,13.9-11.51,17.01-15.31,3.23-3.96,1.61-7.55,1.54-7.7l-.09-.2,3.06-2.2c-.02-1.69-.48-2.99-1.36-3.86-.86-.85-1.92-1.07-2.41-1.13,0,.4-.11,1.11-.65,1.7-.66.72-1.75,1.05-3.25.97-3.79-.2-5.02,2.34-5.07,2.45l-.06.08-16.79,15.65Z"/>
      </g>
      <g>
        <g>
          <path class="cls-2" d="M34.96,203.43s10.34-17.71,2.91-23.53l-6.93-3.04s-6.63-6.33-13.12,18.2l12.93,6.32,4.21,2.06Z"/>
          <path class="cls-2" d="M35.49,205.19l-19.26-9.41.28-1.07c3.15-11.92,6.87-18.57,11.05-19.75,1.84-.52,3.35.15,4.09.74l6.91,3.03.13.11c3.57,2.8,4.17,7.99,1.78,15.43-1.68,5.24-4.25,9.66-4.36,9.85l-.63,1.08ZM19.41,194.32l14.99,7.33c2.84-5.28,7.5-16.62,2.76-20.59l-6.99-3.07-.17-.16c-.05-.04-.71-.58-1.76-.26-1.41.43-5.03,2.94-8.83,16.75Z"/>
        </g>
        <path class="cls-2" d="M20.8,213.09s-.07,0-.08,0h-.35s-.3-.19-.3-.19c-.12-.07-2.89-1.74-3.46-5.34-.54-3.41,1.05-7.24,4.73-11.41l2.02,1.79c-3.08,3.48-4.49,6.67-4.09,9.2.28,1.75,1.36,2.81,1.88,3.23,1.38-.14,6.27-1.22,8.38-9.57l2.62.66c-2.85,11.28-10.43,11.63-11.36,11.63Z"/>
      </g>
      <g>
        <g>
          <path class="cls-2" d="M12.2,216.4s5.05,6.97,14.17,2.26l-5.3,19.41-9.02-1.44.14-20.24Z"/>
          <path class="cls-2" d="M21.27,238.38l-9.49-1.51.15-21.29.48.66c.2.28,5.03,6.73,13.83,2.18l.55-.28-5.52,20.24ZM12.33,236.41l8.55,1.36,5.08-18.6c-7.32,3.48-12.03-.5-13.49-2.05l-.14,19.29Z"/>
        </g>
        <path class="cls-2" d="M26.2,218.87c-6.76-5.77-13.8-2.26-13.87-2.23l-.25-.48c.07-.04,7.44-3.71,14.47,2.3l-.35.41Z"/>
      </g>
      <g>
        <path class="cls-2" d="M61.15,171.05s1.3,6.73,5.17,10.37l-17.5,9.65s-1.93-8.3-5.88-11.68l10.75-6.43s2.79,3.59,7.46-1.9Z"/>
        <path class="cls-2" d="M48.64,191.47l-.08-.35c-.02-.08-1.96-8.25-5.79-11.54l-.28-.24,11.27-6.75.15.19s.82,1.02,2.24,1.05c1.48.03,3.1-.97,4.8-2.96l.36-.43.11.55c.01.07,1.33,6.69,5.09,10.22l.27.25-18.13,10ZM43.4,179.43c3.38,3.16,5.2,9.64,5.6,11.23l16.87-9.3c-3.11-3.13-4.49-8.1-4.87-9.73-1.69,1.86-3.32,2.78-4.87,2.74-1.3-.03-2.15-.73-2.49-1.08l-10.24,6.13Z"/>
      </g>
      <g>
        <g>
          <path class="cls-2" d="M54.7,78.87s-12.3-11.2-18.17-6.29l-3.59,4.99s-6.15,4.19,12.21,13.49l7.2-9.19,2.34-2.99Z"/>
          <path class="cls-2" d="M45.53,92.75l-.99-.5c-9.14-4.63-13.7-8.66-13.93-12.32-.1-1.62.71-2.77,1.34-3.31l3.58-4.97.13-.11c2.92-2.43,7.23-2.04,12.83,1.17,3.89,2.23,6.99,5.04,7.12,5.16l.93.84-11.01,14.04ZM37.52,73.51l-3.62,5.03-.2.13c-.05.04-.46.4-.39,1.13.11,1.14,1.46,4.31,11.47,9.53l8.07-10.29c-3.73-3.12-11.56-8.42-15.33-5.53Z"/>
        </g>
        <path class="cls-2" d="M55.22,94.38c-.12,0-.24,0-.36,0-2.87-.15-5.71-2.1-8.44-5.79l2.17-1.61c2.18,2.94,4.38,4.57,6.37,4.7,1.29.08,2.23-.48,2.67-.82.1-1.18-.1-4.98-6.04-7.91l1.19-2.42c9.01,4.44,7.49,11.06,7.42,11.34l-.08.34-.23.25c-.08.08-1.81,1.93-4.67,1.93Z"/>
      </g>
      <g>
        <path class="cls-2" d="M29.16,86.37l-1.2-1.21s-5.8,1.39-9.29-3.05c0,0-1.45,1.55-2.47.68l-1.02-.87s-.12-1.03,1.82-2.29l-.15-1.88s5.96-4.31,9.96,1.27c0,0,3.75,3.1,2.35,4.95-1.4,1.85,0,2.41,0,2.41Z"/>
        <path class="cls-2" d="M30.27,87.11l-1.21-.48s-.44-.18-.66-.63l-.53-.53c-.94.18-5.97.91-9.22-2.95-.49.43-1.67,1.3-2.62.49l-1.1-.94v-.11c-.03-.12-.09-1.18,1.79-2.46l-.15-1.88.12-.09c.12-.08,2.9-2.07,6-1.56,1.69.27,3.14,1.24,4.32,2.86.38.32,3.85,3.33,2.37,5.3-.46.6-.64,1.12-.54,1.5,0,.02.01.04.02.05l1.41,1.42ZM28.05,84.87l.25.26c.07-.4.29-.84.65-1.32,1.02-1.35-1.32-3.76-2.31-4.58l-.05-.05c-1.09-1.52-2.43-2.42-3.98-2.67-2.54-.41-4.92,1.01-5.48,1.38l.15,1.89-.13.09c-1.41.92-1.65,1.69-1.69,1.95l.92.78c.81.69,2.08-.65,2.1-.66l.21-.23.19.25c3.34,4.25,8.96,2.97,9.01,2.96l.15-.04Z"/>
      </g>
      <g>
        <g>
          <path class="cls-2" d="M14.02,104.23s-1.7-6.58-9.76-5.75l9.5-12.73,6.21,3.66-5.95,14.83Z"/>
          <path class="cls-2" d="M13.96,105.09l-.21-.79c-.07-.26-1.75-6.35-9.47-5.55l-.61.06,10.01-13.42,6.62,3.9-6.34,15.8ZM5.61,98.14c5.58,0,7.75,3.76,8.42,5.34l5.6-13.96-5.8-3.42-9,12.06c.27-.02.53-.02.78-.02Z"/>
        </g>
        <path class="cls-2" d="M13.59,104.52c-1.55,0-6.65-.44-9.57-5.91l.48-.25c3.28,6.16,9.43,5.62,9.5,5.61l.05.54s-.17.02-.46.02Z"/>
      </g>
      <g>
        <path class="cls-2" d="M27.32,94.89l10.65,8.6s.82,1.64-.44,2.97-5.64,6.98-5.64,6.98c0,0-1.12,1.63-2.57.27s-10.77-8.7-10.77-8.7c0,0-.97-.98-.01-2.16.96-1.18,6.02-7.46,6.02-7.46,0,0,1.07-1.09,2.76-.51Z"/>
        <path class="cls-2" d="M30.49,114.52c-.46,0-.92-.21-1.35-.61-1.42-1.34-10.66-8.61-10.75-8.68-.42-.42-.93-1.46-.06-2.54l6.02-7.46c.07-.07,1.23-1.22,3.06-.6l.08.05,10.7,8.64.03.05s.89,1.83-.49,3.27c-1.24,1.3-5.58,6.9-5.62,6.96-.01.02-.57.82-1.45.91-.06,0-.11,0-.17,0ZM26.34,94.99c-.97,0-1.56.57-1.59.6l-6,7.43c-.77.96-.08,1.72,0,1.8.36.28,9.33,7.34,10.76,8.69.36.34.73.5,1.09.46.63-.06,1.07-.69,1.07-.69.19-.24,4.4-5.69,5.67-7.01,1.01-1.06.54-2.34.42-2.61l-10.56-8.53c-.31-.1-.59-.14-.85-.14Z"/>
      </g>
      <g>
        <path class="cls-2" d="M55.09,99.63l-5.03,8.41-17.46-13.18s-.48-3.02,2.98-4.61l19.5,9.38Z"/>
        <path class="cls-2" d="M50.14,108.43l-17.79-13.42-.02-.11s-.47-3.24,3.14-4.9l.12-.05,19.88,9.56-5.33,8.92ZM32.86,94.72l17.12,12.92,4.72-7.9-19.12-9.19c-2.77,1.33-2.76,3.65-2.72,4.16Z"/>
      </g>
      <g>
        <path class="cls-2" d="M69.66,87.48s3.35-1.6,3.97,2.9l-2.08,2.84s1.85,2.51-.32,7.13c-2.16,4.62-11.64,18.92-11.64,18.92l-7.66-5.17,11.4-19.07s.69-2.78,3.84-4.04,2.49-3.5,2.49-3.5Z"/>
        <path class="cls-2" d="M59.67,119.63l-8.1-5.47,11.51-19.25c.1-.37.92-2.95,3.99-4.19,2.87-1.15,2.36-3.09,2.33-3.17l-.06-.22.21-.1c.06-.03,1.43-.67,2.66,0,.91.49,1.48,1.54,1.69,3.11l.02.11-2.04,2.77c.38.66,1.51,3.14-.4,7.23-2.15,4.58-11.57,18.81-11.66,18.95l-.15.23ZM52.29,114l7.22,4.88c1.22-1.85,9.49-14.43,11.47-18.66,2.06-4.4.36-6.83.34-6.85l-.12-.16,2.13-2.91c-.2-1.33-.67-2.21-1.4-2.6-.75-.41-1.62-.19-1.99-.06.08.66.02,2.49-2.7,3.58-2.98,1.19-3.67,3.83-3.68,3.86l-.03.07-11.26,18.85Z"/>
      </g>
      <g>
        <path class="cls-2" d="M50.21,111.4s-3.48-1.6-4.99-.89c0,0-2.14-1.39-4.24-1.38s-2.69-1.29-2.69-1.29l-1.78,5.96,11.92,3.21s-.73-.82.48-2.92,1.29-2.69,1.29-2.69Z"/>
        <path class="cls-2" d="M49.16,117.48l-.79-.21-12.19-3.28,2.06-6.91.3.66s.55,1.13,2.41,1.13c.02,0,.05,0,.07,0,1.88,0,3.74,1.05,4.23,1.34,1.66-.61,4.93.88,5.07.95l.18.08-.03.2c0,.07-.12.7-1.32,2.79-1.07,1.87-.51,2.6-.51,2.61l.52.64ZM36.85,113.61l11.13,2.99c-.1-.51-.04-1.36.7-2.65.8-1.39,1.09-2.1,1.2-2.4-1.08-.46-3.48-1.3-4.55-.8l-.14.06-.13-.08s-2.08-1.35-4.09-1.33c-1.4,0-2.19-.53-2.59-.96l-1.54,5.17Z"/>
      </g>
      <g>
        <path class="cls-2" d="M123.7,49.95l-7.23-1.64s-4.9,1.95-6.67,25.03l10.42,2.16,4.58-20.19s1.38-1.73-1.1-5.35Z"/>
        <path class="cls-2" d="M120.42,75.81l-10.91-2.26.02-.24c1.76-22.98,6.63-25.17,6.84-25.26l.08-.03,7.41,1.68.06.09c2.35,3.44,1.36,5.28,1.13,5.62l-4.63,20.4ZM110.09,73.12l9.92,2.06,4.54-19.99.04-.05s1.19-1.62-1.05-4.94l-7.03-1.59c-.56.35-4.8,3.68-6.42,24.52Z"/>
      </g>
      <g>
        <path class="cls-2" d="M178.7,5.87s2.94,1.18,1.85,3.43l-2.42,1.68.62,1.01-3.23,1.97s-.01,1.59-7.09,5.33c0,0-3.32,2.63-4.05,4.66s-11.47,5.42-11.47,5.42c0,0-5.14-4.79-4.5-8.16.65-3.37,19.81-11.92,19.81-11.92l1.69.75,5.2-3.18,3.58-1Z"/>
        <path class="cls-2" d="M152.84,29.68l-.12-.11c-.21-.2-5.25-4.93-4.58-8.41.11-.55.43-2.23,10.29-7.41,4.82-2.53,9.63-4.68,9.68-4.7l.11-.05,1.67.74,5.15-3.14,3.67-1.02.08.03c.07.03,1.62.66,2.12,1.93.23.59.19,1.22-.12,1.87l-.03.06-2.27,1.57.63,1.02-3.36,2.06c-.17.53-1.18,2.22-7.2,5.39h0s-3.23,2.58-3.92,4.51c-.75,2.1-10.53,5.24-11.64,5.59l-.15.05ZM168.23,9.59c-5.37,2.4-19.04,9.04-19.55,11.67-.56,2.92,3.56,7.08,4.3,7.8,4.27-1.36,10.64-3.83,11.14-5.21.75-2.08,4-4.67,4.14-4.78,6.7-3.54,6.99-5.12,6.99-5.14v-.15s.13-.06.13-.06l3-1.83-.61-1,2.57-1.78c.22-.48.24-.94.08-1.37-.35-.9-1.43-1.45-1.73-1.59l-3.45.96-5.29,3.23-1.71-.76Z"/>
      </g>
      <g>
        <path class="cls-2" d="M140.68,24.01s3.86,7.28,9.59,10.1l-16.73,17.25s-5.14-8.86-10.87-11.37l10.09-11.18s4.47,3.15,7.91-4.81Z"/>
        <path class="cls-2" d="M133.49,51.81l-.18-.31c-.05-.09-5.16-8.81-10.74-11.26l-.34-.15,10.51-11.63.2.14s1.32.9,2.99.42c1.74-.49,3.26-2.22,4.51-5.12l.22-.52.26.5c.04.07,3.88,7.24,9.47,9.99l.33.16-17.23,17.78ZM123.12,39.91c5.07,2.44,9.52,9.44,10.47,11.02l16.23-16.74c-4.79-2.52-8.17-7.93-9.12-9.58-1.29,2.77-2.85,4.43-4.65,4.94-1.53.43-2.76-.11-3.24-.38l-9.7,10.74Z"/>
      </g>
      <g>
        <path class="cls-2" d="M142.19,79.82l-13.81-4.05,10.67-24.09s3.98-1.29,7.67,2.5l-4.53,25.65Z"/>
        <path class="cls-2" d="M142.41,80.16l-14.39-4.22,10.85-24.48.11-.04s4.18-1.29,7.94,2.56l.1.1-.02.14-4.58,25.95ZM128.76,75.59l13.22,3.88,4.45-25.22c-3.17-3.16-6.53-2.52-7.18-2.36l-10.49,23.69Z"/>
      </g>
      <g>
        <path class="cls-2" d="M226.26,178.38s6.32-2.52,7.41-7.73l23.24,19.8s-7.55,3.51-8.31,8.77l-14.82-12.09s1.84-3.88-7.52-8.76Z"/>
        <path class="cls-2" d="M248.79,199.74l-15.35-12.52.09-.19s1.56-3.73-7.4-8.4l-.52-.27.55-.22c.06-.02,6.2-2.53,7.25-7.53l.09-.44,23.9,20.37-.38.18c-.07.03-7.42,3.51-8.16,8.57l-.07.47ZM234.1,187.05l14.32,11.68c.98-4.47,6.5-7.56,8.01-8.33l-22.59-19.25c-1.13,4.19-5.45,6.55-6.96,7.26,7.88,4.26,7.47,7.77,7.22,8.65Z"/>
      </g>
      <g>
        <g>
          <path class="cls-2" d="M228.56,204.29s7.91-.16,9.13-9.51l11.88,14.17-5.81,6.05-15.2-10.71Z"/>
          <path class="cls-2" d="M243.79,215.36l-16.06-11.32.82-.02c.31,0,7.69-.27,8.87-9.28l.08-.61,12.43,14.83-6.14,6.4ZM229.3,204.48l14.42,10.17,5.48-5.71-11.34-13.53c-1.22,7.25-6.59,8.76-8.57,9.07Z"/>
        </g>
        <path class="cls-2" d="M228.83,204.33l-.54-.07c.01-.08,1.1-7.57,9.33-9.74l.14.52c-7.89,2.07-8.92,9.22-8.93,9.29Z"/>
      </g>
      <g>
        <path class="cls-2" d="M259.51,196.52s-2.54-1.54-3.9.17l-.17,2.39h-1.19s0,3.07,0,3.07c0,0-1.36.68-.85,7.17,0,0-.51,3.42-1.86,4.78-1.36,1.37,1.36,10.25,1.36,10.25,0,0,6.78,1.54,9.32-.34s-.17-18.79-.17-18.79l-1.53-.85v-4.95s-1.02-2.9-1.02-2.9Z"/>
        <path class="cls-2" d="M258.08,225.23c-2.54,0-5.07-.56-5.24-.6l-.15-.03-.05-.15c-.28-.93-2.72-9.08-1.29-10.52,1.21-1.22,1.73-4.27,1.78-4.6-.42-5.44.47-6.92.85-7.29v-3.22h1.21l.16-2.22.05-.07c1.19-1.5,3.3-.81,4.25-.23l.08.05,1.06,3.08v4.79l1.5.84.02.13c.28,1.75,2.66,17.13.06,19.05-1.02.76-2.67.99-4.3.99ZM253.11,224.13c1.01.21,6.74,1.3,8.95-.33,1.96-1.45.5-13.64-.26-18.4l-1.55-.87v-5.06l-.97-2.76c-.42-.23-2.34-1.16-3.41.09l-.18,2.56h-1.17v2.97l-.15.07s-1.17.85-.7,6.91v.03s0,.03,0,.03c-.02.14-.54,3.52-1.94,4.93-.89.9.35,6.44,1.38,9.83Z"/>
      </g>
      <g>
        <path class="cls-2" d="M255.82,242.19l.35-1.65s-3.51-4.71-1.84-9.92c0,0-1.74-.64-1.56-1.97l.18-1.33s.68-.57,2.43.64l1.29-.98s5.67,3.54,3.41,9.74c0,0-.6,4.85-2.53,4.39-1.93-.46-1.73,1.08-1.73,1.08Z"/>
        <path class="cls-2" d="M255.76,243.79l-.21-1.56s-.06-.47.17-.87l.16-.75c-.51-.72-3.29-5-1.88-9.83-.51-.25-1.66-.94-1.5-2.15l.2-1.43.08-.07c.08-.07.85-.63,2.59.51l1.28-.98.16.1c.06.04,5.82,3.72,3.53,10.03-.05.37-.49,3.48-1.77,4.38-.33.23-.7.31-1.08.21-.55-.13-.96-.1-1.18.1-.03.03-.05.06-.08.09l-.47,2.22ZM256.9,240.76c.21,0,.45.03.71.09.23.06.45.01.65-.13.94-.66,1.44-3.13,1.55-4.03v-.06c1.97-5.36-2.26-8.7-3.13-9.32l-1.29.99-.16-.11c-1.2-.83-1.82-.76-2.03-.69l-.16,1.19c-.15,1.1,1.37,1.67,1.38,1.68l.24.09-.08.25c-1.61,5.02,1.76,9.64,1.8,9.68l.07.1-.07.35c.15-.05.33-.07.52-.07Z"/>
      </g>
    </g>
    <g>
      <path class="cls-1" d="M179.38,84.59v-16.06l-7.9-24.46h7.75l4.35,14.26,4.05-14.26h7.5l-7.8,24.46v16.06h-7.95Z"/>
      <path class="cls-1" d="M209.14,85.14c-2.97,0-5.32-.53-7.05-1.6-1.73-1.07-2.98-2.59-3.73-4.58-.75-1.98-1.12-4.36-1.12-7.13v-15.11c0-2.77.38-5.13,1.12-7.1.75-1.97,1.99-3.47,3.73-4.5,1.73-1.03,4.08-1.55,7.05-1.55s5.38.53,7.13,1.58c1.75,1.05,3,2.55,3.75,4.5.75,1.95,1.12,4.31,1.12,7.08v15.11c0,2.77-.38,5.14-1.12,7.13-.75,1.98-2,3.51-3.75,4.58-1.75,1.07-4.13,1.6-7.13,1.6ZM209.14,79.19c1.07,0,1.85-.24,2.35-.72s.83-1.13,1-1.95c.17-.82.25-1.69.25-2.63v-19.16c0-.93-.08-1.8-.25-2.6-.17-.8-.5-1.44-1-1.92s-1.28-.73-2.35-.73c-1,0-1.75.24-2.25.73s-.83,1.12-1,1.92c-.17.8-.25,1.67-.25,2.6v19.16c0,.93.07,1.81.22,2.63.15.82.47,1.47.98,1.95.5.48,1.27.72,2.3.72Z"/>
      <path class="cls-1" d="M238.05,85.14c-3.07,0-5.45-.52-7.15-1.58s-2.89-2.57-3.58-4.55c-.68-1.98-1.03-4.39-1.03-7.23v-27.71h8.15v28.86c0,1,.07,1.98.22,2.95.15.97.48,1.75,1,2.35s1.31.9,2.38.9,1.91-.3,2.43-.9c.52-.6.84-1.38.97-2.35.13-.97.2-1.95.2-2.95v-28.86h8.15v27.71c0,2.83-.34,5.24-1.03,7.23-.68,1.98-1.88,3.5-3.58,4.55s-4.09,1.58-7.15,1.58Z"/>
      <path class="cls-1" d="M236.45,144.61l.7-40.52h8.75l5,25.56,5.35-25.56h8.45l.7,40.52h-6l-.65-27.46-5.15,27.46h-5.15l-5.4-27.66-.55,27.66h-6.05Z"/>
      <path class="cls-1" d="M269.36,144.61l7.85-40.52h9.15l7.8,40.52h-7.65l-1.45-8.9h-6.4l-1.55,8.9h-7.75ZM279.42,130.66h4.85l-2.45-16.36-2.4,16.36Z"/>
      <path class="cls-1" d="M299.88,144.61v-34.36h-6.25v-6.15h20.71v6.15h-6.15v34.36h-8.3Z"/>
      <path class="cls-1" d="M321.78,144.61v-34.36h-6.25v-6.15h20.71v6.15h-6.15v34.36h-8.3Z"/>
      <path class="cls-1" d="M339.89,144.61v-40.52h17.66v5.7h-9.4v10.75h7.25v5.75h-7.25v12.7h9.5v5.6h-17.76Z"/>
      <path class="cls-1" d="M361.8,144.61v-40.52h10.5c2.73,0,5.08.31,7.03.93,1.95.62,3.45,1.71,4.5,3.28,1.05,1.57,1.58,3.73,1.58,6.5,0,1.67-.14,3.14-.42,4.43-.28,1.28-.78,2.4-1.5,3.35-.72.95-1.73,1.71-3.03,2.28l5.6,19.76h-8.45l-4.65-18.36h-2.9v18.36h-8.25ZM370.05,121.35h2.4c1.33,0,2.38-.22,3.15-.65.77-.43,1.31-1.09,1.63-1.98.32-.88.47-1.98.47-3.28,0-1.87-.34-3.29-1.03-4.28s-1.96-1.48-3.83-1.48h-2.8v11.65Z"/>
      <path class="cls-1" d="M390.26,144.61v-7.35h7.2v7.35h-7.2Z"/>
    </g>
  </g>
</svg>