<?xml version="1.0" encoding="UTF-8"?>
<svg id="Layer_2" data-name="Layer 2" xmlns="http://www.w3.org/2000/svg" viewBox="0 0 427.32 285.09">
  <defs>
    <style>
      .cls-1 {
        fill: #152a2c;
      }

      .cls-2 {
        fill: #a6aebf;
      }
    </style>
  </defs>
  <g id="Layer_1-2" data-name="Layer 1">
    <g>
      <g>
        <g>
          <path class="cls-2" d="M123.47,195.87l22.66,17.51s1.75,3.34-.94,6.04c-2.69,2.7-11.99,14.21-11.99,14.21,0,0-2.39,3.33-5.46.56-3.07-2.77-22.91-17.71-22.91-17.71,0,0-2.06-1.99-.03-4.4,2.03-2.41,12.81-15.18,12.81-15.18,0,0,2.28-2.21,5.87-1.04Z"/>
          <path class="cls-2" d="M130.21,235.54c-.91,0-1.8-.39-2.67-1.17-3.03-2.73-22.69-17.54-22.89-17.69-.05-.04-2.23-2.2-.07-4.76l12.81-15.18c.12-.11,2.46-2.33,6.16-1.12l.08.04,22.7,17.55.03.05s1.8,3.54-.98,6.33c-2.65,2.66-11.88,14.08-11.98,14.19-.04.05-1.14,1.57-2.86,1.74-.11.01-.22.02-.32.02ZM121.38,195.77c-2.19,0-3.52,1.24-3.59,1.31l-12.79,15.16c-1.86,2.21-.07,3.99.01,4.06.17.13,19.86,14.95,22.9,17.7.85.76,1.71,1.11,2.57,1.02,1.48-.15,2.48-1.52,2.49-1.54.1-.13,9.35-11.57,12.02-14.25,2.39-2.39,1.12-5.28.92-5.7l-22.57-17.45c-.71-.23-1.37-.32-1.96-.32Z"/>
        </g>
        <g>
          <path class="cls-2" d="M71.31,147.79l9.16-13.71,28.23,23.63s.54,5.12-5.4,7.49l-31.98-17.41Z"/>
          <path class="cls-2" d="M107.69,162.15c-.82,1.22-2.14,2.44-4.3,3.3l-.12.05-.11-.06-32.24-17.55,9.49-14.2,28.54,23.89v.11s.22,2.25-1.26,4.47ZM103.31,164.91c5.11-2.1,5.16-6.34,5.12-7.06l-27.91-23.36-8.83,13.21,31.61,17.21Z"/>
        </g>
        <g>
          <path class="cls-2" d="M118.53,147.12h15.17s8.9,4.95,1.98,42.86l-21.76-.33v-34.29s-1.98-3.3,4.62-8.24Z"/>
          <path class="cls-2" d="M135.9,190.26l-22.26-.34v-34.49c-.27-.53-1.54-3.83,4.72-8.53l.07-.05h15.33l.06.03c.37.21,8.99,5.47,2.11,43.15l-.04.23ZM114.18,189.39l21.27.32c3.5-19.27,2.8-29.76,1.6-35.17-1.19-5.35-3.09-6.91-3.43-7.15h-15c-6.2,4.68-4.49,7.8-4.47,7.84l.04.06v.07s0,34.02,0,34.02Z"/>
        </g>
        <g>
          <path class="cls-2" d="M81.73,155.09s-5.83-.05-6.5,4.14l2.02,4.16-2.03,1.17,2.97,5.14s-1.66,2.48,5.49,12.82c0,0,2.43,6.21,1.44,9.83-1,3.62,12.22,15.78,12.22,15.78,0,0,13.08-4.14,15.61-9.79,2.53-5.65-18.45-31.22-18.45-31.22l-3.43.08-4.79-8.28-4.55-3.85Z"/>
          <path class="cls-2" d="M106.92,204.25c2.75-1.59,5.28-3.56,6.27-5.78,2.57-5.74-17.63-30.46-18.49-31.51l-.08-.1-3.41.08-4.77-8.21-4.62-3.91h-.1c-.06,0-6.08,0-6.78,4.37v.08s1.94,4.01,1.94,4.01l-2.04,1.18,3.04,5.25c-.26.72-.71,3.87,5.55,12.93.17.46,2.34,6.26,1.42,9.64-1.03,3.74,11.76,15.55,12.3,16.05l.12.11.15-.05c.33-.1,5.19-1.66,9.5-4.16ZM94.37,167.41c1.44,1.76,20.69,25.58,18.33,30.84-2.31,5.15-13.83,9.11-15.29,9.59-3.72-3.44-12.81-12.59-12.03-15.41,1.01-3.67-1.34-9.75-1.44-10v-.03s-.03-.03-.03-.03c-6.86-9.92-5.49-12.5-5.48-12.53l.08-.14-.07-.14-2.84-4.9,2.01-1.16-2.09-4.31c.64-3.55,5.38-3.81,6.11-3.83l4.43,3.75,4.84,8.37,3.46-.08Z"/>
        </g>
        <g>
          <path class="cls-2" d="M166.68,179.32s6.76,10.03,15.57,13.27l-21.75,27.78s-8.87-12.14-17.63-14.91l13.01-17.88s7.01,3.9,10.8-8.25Z"/>
          <path class="cls-2" d="M160.5,220.82l-.21-.29c-.09-.12-8.92-12.1-17.49-14.81l-.36-.11,13.37-18.38.21.12s2.11,1.14,4.54.16c2.5-1,4.48-3.78,5.87-8.26l.17-.54.31.47c.07.1,6.81,10,15.44,13.16l.35.13-22.2,28.35ZM143.31,205.32c7.87,2.71,15.81,12.78,17.2,14.61l21.3-27.21c-7.56-2.95-13.62-10.83-15.04-12.79-1.44,4.34-3.47,7.06-6.03,8.09-2.23.89-4.15.2-4.78-.09l-12.65,17.4Z"/>
        </g>
        <g>
          <path class="cls-2" d="M138.78,122.88s-1.09,14.98,3.59,19.55c0,0-2.18,9.77.77,17.47,2.95,7.7-1.03,11.66-1.03,11.66l24.34-1.67-4.62-48.25s-2,3.8-11.39,2.26-11.66-1.03-11.66-1.03Z"/>
          <path class="cls-2" d="M166.75,170.15l-25.34,1.73.51-.51s.97-.99,1.56-2.87c.55-1.74.89-4.62-.6-8.51-2.75-7.17-1.07-16.22-.81-17.48-4.59-4.72-3.61-19.05-3.56-19.66v-.2s.21-.04.21-.04c.09-.02,2.43-.51,11.77,1.03,9.04,1.49,11.09-2.08,11.11-2.12l.42-.78.08.88,4.65,48.53ZM142.72,171.25l23.44-1.6-4.53-47.3c-1,1.05-3.93,3.02-11.23,1.82-7.74-1.27-10.64-1.14-11.36-1.06-.11,1.85-.71,14.98,3.52,19.12l.11.11-.03.15c-.02.1-2.12,9.78.76,17.31,2.41,6.31.3,10.14-.67,11.45Z"/>
        </g>
        <g>
          <path class="cls-2" d="M142.75,232.48l3.63,1.98s12.53-7.25,23.74.66c0,0,2.31-4.62,5.28-3.3l2.97,1.32s.99,2.31-2.64,6.59l1.65,4.29s-10.88,14.18-24.07,3.96c0,0-10.88-4.62-8.9-9.89,1.98-5.28-1.65-5.6-1.65-5.6Z"/>
          <path class="cls-2" d="M163.13,251.95c-3.41,0-6.76-1.25-9.97-3.74-.78-.34-11.03-4.86-9.02-10.22.7-1.87.76-3.29.18-4.22-.04-.07-.09-.14-.14-.2l-2.71-1.48,1.3.12s1.04.1,1.76.94l1.84,1c1.38-.74,13.11-6.64,23.64.57.57-1.02,2.72-4.37,5.48-3.15l3.06,1.36.04.1c.04.1.99,2.47-2.58,6.75l1.65,4.28-.09.12c-.05.07-5.21,6.69-12.63,7.65-.61.08-1.21.12-1.81.12ZM145.05,234.05c.37,1.04.24,2.43-.41,4.13-1.86,4.97,8.65,9.5,8.76,9.55l.06.03c3.67,2.85,7.51,4.04,11.41,3.53,6.66-.86,11.46-6.44,12.19-7.33l-1.65-4.29.1-.12c3.05-3.61,2.74-5.76,2.62-6.22l-2.86-1.27c-2.69-1.2-4.9,3.13-4.92,3.17l-.14.28-.26-.18c-10.93-7.72-23.32-.72-23.45-.65l-.13.08-1.32-.72Z"/>
        </g>
        <g>
          <path class="cls-2" d="M104.4,146.84s-6.52.03-6.44-8.22l4.54-3.19s-2.68-5.81,2.49-12.01c5.16-6.19,26.2-23.13,26.2-23.13l12.53,15.12-25.8,23.59s-2,4.22-8.06,3.84c-6.06-.38-5.46,4-5.46,4Z"/>
          <path class="cls-2" d="M104.39,147.11c-.15,0-2.6-.03-4.51-1.96-1.48-1.49-2.22-3.69-2.2-6.54v-.14s4.48-3.15,4.48-3.15c-.19-.49-.61-1.78-.63-3.58-.02-2.08.52-5.24,3.24-8.5,5.12-6.14,26.03-23,26.24-23.17l.21-.17,12.86,15.52-.19.17-25.76,23.56c-.26.49-2.48,4.31-8.29,3.95-2.03-.12-3.5.28-4.36,1.2-.99,1.06-.82,2.49-.82,2.5l.04.3h-.31s0,0,0,0ZM98.23,138.76c0,2.62.68,4.65,2.03,6.01,1.4,1.42,3.17,1.72,3.85,1.78,0-.55.1-1.68.97-2.61.97-1.05,2.59-1.51,4.79-1.37,5.79.36,7.72-3.52,7.8-3.69l.06-.08,25.61-23.42-12.19-14.71c-2.2,1.78-21.14,17.15-25.96,22.93-2.61,3.13-3.13,6.14-3.12,8.13.02,2.15.66,3.58.67,3.6l.09.2-4.61,3.24Z"/>
        </g>
        <g>
          <g>
            <path class="cls-2" d="M83.88,88.71s-19.7,17.71-12.86,27.81l7.33,6.48s5.66,10.41,23.32-17.22l-13.42-12.88-4.37-4.19Z"/>
            <path class="cls-2" d="M78.2,124.82c-.38-.33-.66-.68-.86-.98l-7.31-6.46-.09-.14c-7.39-10.91,12.23-28.75,13.07-29.51l.9-.81,19.43,18.64-.58.9c-8.49,13.29-15.56,19.93-21,19.74-1.58-.06-2.77-.7-3.57-1.4ZM72.01,115.65l7.38,6.52.11.2s.73,1.21,2.42,1.24c2.47.05,8.06-2.21,18.08-17.64l-16.13-15.48c-5.59,5.31-16.45,18.03-11.86,25.16Z"/>
          </g>
          <path class="cls-2" d="M97.53,102.65l-1.33-2.24c5.25-3.13,8.32-6.58,8.86-9.98.42-2.61-.71-4.54-1.2-5.22-1.59-.39-8.5-1.37-14.73,8.63l-2.21-1.38c8.11-13.01,17.74-9.76,18.15-9.61l.31.11.22.25c.11.13,2.73,3.13,2.04,7.57-.66,4.27-4.06,8.26-10.11,11.86Z"/>
        </g>
        <g>
          <g>
            <path class="cls-2" d="M139.3,77.99s-9.35,6.91-2.87,19.17l-26.29-6.91,1.83-12.2,27.34-.06Z"/>
            <path class="cls-2" d="M136.95,97.58l-27.12-7.13,1.9-12.67,28.39-.06-.66.49c-.37.28-9.09,6.93-2.8,18.83l.29.54ZM110.43,90.06l25.47,6.7c-5.07-10.19.74-16.71,2.66-18.49l-26.37.06-1.76,11.73Z"/>
          </g>
          <path class="cls-2" d="M136.63,97.34l-.41-.35c7.74-9.24,2.89-18.78,2.84-18.87l.48-.25c.05.1,5.08,9.94-2.91,19.47Z"/>
        </g>
        <g>
          <g>
            <path class="cls-2" d="M204.87,229.67s-11.53-1.55-15.42,11.75l-14.05-23.27,9.81-7.48,19.66,19Z"/>
            <path class="cls-2" d="M189.54,242.1l-14.49-24.01,10.19-7.77,20.41,19.73-.81-.11c-.46-.06-11.35-1.36-15.12,11.56l-.17.59ZM175.76,218.23l13.61,22.55c3.46-10.84,12.19-11.47,14.79-11.41l-18.96-18.33-9.43,7.19Z"/>
          </g>
          <path class="cls-2" d="M189.48,241.7l-.06-.54c12-1.24,15.16-11.46,15.19-11.56l.52.15c-.03.11-3.28,10.67-15.65,11.95Z"/>
        </g>
        <g>
          <path class="cls-2" d="M217.37,178.07s4.21-2.49,7.29,2.89l-1.73,3.79s3.94,2.75,2.94,8.73c-1,5.97-8.21,24.93-8.21,24.93l-13.85-5.05,7.78-25.08s-.3-3.49,3.77-5.55,2.02-4.67,2.02-4.67Z"/>
          <path class="cls-2" d="M217.82,218.76l-14.35-5.23,7.84-25.28c-.02-.48.02-3.79,3.92-5.75,1.35-.68,2.14-1.49,2.34-2.39.23-1.04-.4-1.86-.41-1.87l-.19-.24.27-.16c.07-.04,1.7-.99,3.72-.45,1.55.41,2.87,1.57,3.94,3.44l.07.12-1.7,3.73c.78.65,3.77,3.53,2.88,8.85-.99,5.93-8.15,24.8-8.23,24.99l-.09.25ZM204.14,213.2l13.36,4.87c.85-2.26,7.18-19.12,8.1-24.63.96-5.74-2.79-8.44-2.83-8.46l-.18-.13,1.77-3.87c-.98-1.67-2.17-2.7-3.54-3.06-1.36-.36-2.56.05-3.06.27.22.39.53,1.14.33,2.05-.24,1.07-1.12,2-2.62,2.75-3.85,1.94-3.63,5.15-3.62,5.28v.05s-.01.05-.01.05l-7.7,24.83Z"/>
        </g>
        <g>
          <path class="cls-2" d="M189.65,166.77l16.25,2.8-10.11,35.39s-4.46,2.58-9.04-1.89l2.91-36.3Z"/>
          <path class="cls-2" d="M192.61,205.96c-1.7,0-3.88-.57-6.05-2.69l-.09-.09v-.13s2.94-36.6,2.94-36.6l16.83,2.9-10.22,35.79-.09.05s-1.36.76-3.31.76ZM187.02,202.96c4.04,3.86,7.88,2.15,8.53,1.81l10-35-15.66-2.7-2.87,35.88Z"/>
        </g>
        <g>
          <path class="cls-2" d="M226.64,166.32s-2.14,3.73-5.05,2.55l-1.9-2.88-1.5.84-2.16-3.86s-2.2.1-6.12-8.41c0,0-3.04-3.93-5.72-4.68s-5.49-13.83-5.49-13.83c0,0,7.5-6.73,12.03-6.18s12.99,23.71,12.99,23.71l-1.33,2.15,3.48,6.22.75,4.37Z"/>
          <path class="cls-2" d="M222.73,169.37c-.4,0-.81-.08-1.24-.25l-.08-.03-1.8-2.74-1.52.85-2.23-3.98c-.64-.13-2.78-1.15-6.18-8.52-.26-.33-3.11-3.87-5.56-4.57-2.75-.78-5.39-12.68-5.68-14.03l-.03-.15.12-.1c.31-.28,7.64-6.81,12.25-6.24,4.65.57,12.87,22.93,13.22,23.88l.04.12-1.31,2.13,3.44,6.17.77,4.46-.05.08s-1.7,2.91-4.15,2.91ZM221.77,168.65c2.4.9,4.27-1.87,4.59-2.38l-.73-4.22-3.54-6.32,1.34-2.18c-2.38-6.48-9.16-22.97-12.73-23.41-4.07-.5-10.74,5.16-11.7,6.01.81,3.7,3.23,12.9,5.26,13.47,2.73.77,5.74,4.61,5.86,4.78l.03.05c3.72,8.08,5.85,8.25,5.87,8.25h.15s.09.14.09.14l2.03,3.62,1.48-.83,1.99,3.02Z"/>
        </g>
        <g>
          <path class="cls-2" d="M169.76,102.11l-2.06-2.08s-9.97,2.39-15.98-5.25c0,0-2.5,2.67-4.25,1.17l-1.75-1.5s-.2-1.77,3.12-3.94l-.25-3.24s10.25-7.42,17.14,2.18c0,0,6.45,5.33,4.04,8.51s-.01,4.14-.01,4.14Z"/>
          <path class="cls-2" d="M170.87,102.85l-1.21-.48s-.71-.29-1.04-1.02l-1-1.01c-1.27.26-10.26,1.76-15.91-5.14-.68.64-2.78,2.36-4.4.97l-1.83-1.56v-.11c-.02-.08-.19-1.91,3.1-4.11l-.25-3.24.12-.09c.2-.14,4.91-3.51,10.18-2.65,2.86.47,5.32,2.1,7.31,4.87.52.44,6.54,5.59,4.06,8.86-.83,1.09-1.16,2.04-.97,2.76.01.05.03.1.05.14l1.8,1.81ZM167.78,99.74l.65.65c.02-.75.4-1.62,1.13-2.58,2.23-2.94-3.94-8.09-4-8.14l-.05-.05c-1.91-2.66-4.25-4.23-6.98-4.68-4.58-.75-8.89,1.95-9.66,2.47l.25,3.25-.13.09c-2.68,1.75-2.97,3.21-3,3.59l1.65,1.41c1.53,1.31,3.85-1.13,3.88-1.15l.21-.23.19.25c5.83,7.41,15.61,5.18,15.7,5.15l.15-.04Z"/>
        </g>
        <g>
          <path class="cls-2" d="M197.26,117.16l-7.09,7.14s-1.98-.24-4.58-2.98c-2.6-2.74-13.17-13.09-13.17-13.09,0,0-2.98-2.8-1.73-3.61s7.17-7.22,7.17-7.22c0,0,.93-.49,3.17,1.73s14.07,13.98,14.07,13.98c0,0,2.15,2.3,2.18,4.06Z"/>
          <path class="cls-2" d="M190.27,124.58l-.13-.02c-.08-.01-2.11-.28-4.75-3.06-2.57-2.71-13.06-12.98-13.17-13.08-.22-.21-2.22-2.13-2.12-3.33.03-.3.17-.54.42-.7,1.21-.78,7.06-7.11,7.12-7.18l.07-.06c.11-.06,1.17-.52,3.48,1.77l14.07,13.98c.1.1,2.23,2.4,2.26,4.25v.11s-7.27,7.31-7.27,7.31ZM178,97.63c-.61.65-5.96,6.42-7.18,7.21-.11.07-.17.16-.18.3-.06.71,1.16,2.15,1.95,2.9.11.11,10.61,10.39,13.18,13.1,2.13,2.24,3.84,2.77,4.3,2.87l6.91-6.95c-.11-1.62-2.08-3.74-2.1-3.77l-14.06-13.97c-1.78-1.77-2.65-1.72-2.83-1.68Z"/>
        </g>
        <g>
          <path class="cls-2" d="M182.82,256.73s-5.92,5.1-5.89,8.51c0,0-4.4,2.79-6.16,6.71s-4.68,3.91-4.68,3.91l9.56,8.36,16.09-19.44s-2.14.66-5.02-3.37c-2.88-4.03-3.91-4.68-3.91-4.68Z"/>
          <path class="cls-2" d="M175.69,284.6l-10.31-9.02h.72c.11,0,2.78-.06,4.43-3.75,1.62-3.62,5.39-6.25,6.14-6.74.13-3.48,5.74-8.36,5.98-8.57l.15-.13.17.11s1.1.72,3.98,4.75c2.71,3.79,4.7,3.27,4.72,3.27l.83-.24-.55.67-16.27,19.65ZM166.72,276.04l8.9,7.79,15.52-18.75c-.9-.08-2.61-.67-4.64-3.51-2.19-3.06-3.3-4.15-3.68-4.48-.95.86-5.66,5.23-5.63,8.16v.15s-.13.08-.13.08c-.04.03-4.36,2.79-6.06,6.59-1.33,2.96-3.3,3.77-4.3,3.99Z"/>
        </g>
        <g>
          <path class="cls-2" d="M188.26,277.4l3.5-9.39,20,10.03s1.04,2.95-2.15,5.19l-21.35-5.83Z"/>
          <path class="cls-2" d="M187.91,277.59l3.71-9.95,20.37,10.21.04.1s1.07,3.17-2.25,5.5l-.1.07-.12-.03-21.64-5.9ZM191.91,268.39l-3.29,8.83,20.94,5.72c2.55-1.86,2.11-4.2,1.98-4.7l-19.63-9.84Z"/>
        </g>
        <g>
          <path class="cls-2" d="M168.41,270.13l-1.75-1.77s-8.48,2.03-13.58-4.46c0,0-2.13,2.27-3.61,1l-1.49-1.27s-.17-1.5,2.66-3.35l-.21-2.76s8.72-6.31,14.57,1.86c0,0,5.48,4.53,3.44,7.24-2.05,2.7-.01,3.52-.01,3.52Z"/>
          <path class="cls-2" d="M169.52,270.87l-1.21-.48s-.61-.25-.91-.88l-.83-.84c-1.16.23-8.73,1.45-13.52-4.36-.62.57-2.38,1.98-3.76.8l-1.57-1.34v-.1c-.02-.07-.17-1.64,2.63-3.52l-.21-2.75.12-.09c.17-.12,4.19-2.99,8.69-2.26,2.44.4,4.54,1.79,6.24,4.15.47.4,5.58,4.78,3.45,7.59-.69.92-.98,1.71-.81,2.31.01.04.02.08.04.11l1.66,1.67ZM166.74,268.07l.5.51c.05-.63.37-1.34.96-2.12,1.87-2.47-3.34-6.82-3.39-6.87l-.05-.05c-1.61-2.25-3.6-3.58-5.91-3.96-3.85-.62-7.46,1.61-8.16,2.08l.21,2.76-.13.09c-2.22,1.45-2.5,2.66-2.53,3l1.39,1.19c1.27,1.09,3.22-.95,3.24-.98l.21-.23.19.25c4.94,6.28,13.23,4.39,13.31,4.37l.15-.04Z"/>
        </g>
        <g>
          <path class="cls-2" d="M55.25,138.56s4.33-.06,4.33,5.42l-3,2.15s1.82,3.84-1.58,7.99c-3.39,4.15-17.25,15.52-17.25,15.52l-8.41-9.96,16.98-15.82s1.3-2.81,5.33-2.6c4.02.21,3.6-2.69,3.6-2.69Z"/>
          <path class="cls-2" d="M37.72,170.01l-8.75-10.36,17.13-15.97c.21-.4,1.66-2.91,5.56-2.71,1.32.07,2.27-.2,2.81-.79.62-.68.51-1.59.51-1.59l-.04-.3h.31c.07,0,1.75-.01,3.07,1.29,1.01,1,1.53,2.48,1.53,4.39v.14l-2.94,2.11c.32.88,1.31,4.39-1.69,8.06-3.37,4.12-16.72,15.09-17.29,15.56l-.21.17ZM29.71,159.7l8.07,9.56c1.74-1.43,13.9-11.51,17.01-15.31,3.23-3.96,1.61-7.55,1.54-7.7l-.09-.2,3.06-2.2c-.02-1.69-.48-2.99-1.36-3.86-.86-.85-1.92-1.07-2.41-1.13,0,.4-.11,1.11-.65,1.7-.66.72-1.75,1.05-3.25.97-3.79-.2-5.02,2.34-5.07,2.45l-.06.08-16.79,15.65Z"/>
        </g>
        <g>
          <g>
            <path class="cls-2" d="M33.71,197.84s10.34-17.71,2.91-23.53l-6.93-3.04s-6.63-6.33-13.12,18.2l12.93,6.32,4.21,2.06Z"/>
            <path class="cls-2" d="M34.25,199.6l-19.26-9.41.28-1.07c3.15-11.92,6.87-18.57,11.05-19.75,1.84-.52,3.35.15,4.09.74l6.91,3.03.13.11c3.57,2.8,4.17,7.99,1.78,15.43-1.68,5.24-4.25,9.66-4.36,9.85l-.63,1.08ZM18.17,188.74l14.99,7.33c2.84-5.28,7.5-16.62,2.76-20.59l-6.99-3.07-.17-.16c-.05-.04-.71-.58-1.76-.26-1.41.43-5.03,2.94-8.83,16.75Z"/>
          </g>
          <path class="cls-2" d="M19.55,207.5s-.07,0-.08,0h-.35s-.3-.19-.3-.19c-.12-.07-2.89-1.74-3.46-5.34-.54-3.41,1.05-7.24,4.73-11.41l2.02,1.79c-3.08,3.48-4.49,6.67-4.09,9.2.28,1.75,1.36,2.81,1.88,3.23,1.38-.14,6.27-1.22,8.38-9.57l2.62.66c-2.85,11.28-10.43,11.63-11.36,11.63Z"/>
        </g>
        <g>
          <g>
            <path class="cls-2" d="M11.4,209.92s5.05,6.97,14.17,2.26l-5.3,19.41-9.02-1.44.14-20.24Z"/>
            <path class="cls-2" d="M20.47,231.9l-9.49-1.51.15-21.29.48.66c.2.28,5.03,6.73,13.83,2.18l.55-.28-5.52,20.24ZM11.53,229.93l8.55,1.36,5.08-18.6c-7.32,3.48-12.03-.5-13.49-2.05l-.14,19.29Z"/>
          </g>
          <path class="cls-2" d="M25.4,212.39c-6.76-5.77-13.8-2.26-13.87-2.23l-.25-.48c.07-.04,7.44-3.71,14.47,2.3l-.35.41Z"/>
        </g>
        <g>
          <path class="cls-2" d="M59.9,165.46s1.3,6.73,5.17,10.37l-17.5,9.65s-1.93-8.3-5.88-11.68l10.75-6.43s2.79,3.59,7.46-1.9Z"/>
          <path class="cls-2" d="M47.39,185.89l-.08-.35c-.02-.08-1.96-8.25-5.79-11.54l-.28-.24,11.27-6.75.15.19s.82,1.02,2.24,1.05c1.48.03,3.1-.97,4.8-2.96l.36-.43.11.55c.01.07,1.33,6.69,5.09,10.22l.27.25-18.13,10ZM42.15,173.84c3.38,3.16,5.2,9.64,5.6,11.23l16.87-9.3c-3.11-3.13-4.49-8.1-4.87-9.73-1.69,1.86-3.32,2.78-4.87,2.74-1.3-.03-2.15-.73-2.49-1.08l-10.24,6.13Z"/>
        </g>
        <g>
          <g>
            <path class="cls-2" d="M52.23,73.65s-11.67-10.63-17.25-5.97l-3.41,4.73s-5.83,3.98,11.59,12.8l6.84-8.72,2.23-2.84Z"/>
            <path class="cls-2" d="M43.53,86.83l-.94-.48c-8.67-4.39-13-8.22-13.23-11.7-.1-1.54.68-2.63,1.28-3.14l3.4-4.72.12-.1c2.77-2.31,6.87-1.94,12.18,1.11,3.69,2.12,6.64,4.78,6.76,4.9l.88.8-10.45,13.33ZM35.92,68.56l-3.44,4.77-.19.13c-.05.04-.44.38-.37,1.08.1,1.08,1.39,4.09,10.89,9.04l7.66-9.77c-3.54-2.96-10.97-7.99-14.55-5.25Z"/>
          </g>
          <path class="cls-2" d="M52.72,88.38c-.11,0-.22,0-.34,0-2.73-.15-5.42-1.99-8.01-5.49l2.06-1.53c2.07,2.79,4.16,4.34,6.05,4.46,1.23.08,2.12-.45,2.53-.78.09-1.12-.09-4.73-5.74-7.51l1.13-2.3c8.56,4.22,7.11,10.5,7.04,10.76l-.08.32-.22.24c-.07.08-1.72,1.83-4.43,1.83Z"/>
        </g>
        <path class="cls-2" d="M30.33,84.17l-1.2-1.21s-5.8,1.39-9.29-3.05c0,0-1.45,1.55-2.47.68l-1.02-.87s-.12-1.03,1.82-2.29l-.15-1.88s5.96-4.31,9.96,1.27c0,0,3.75,3.1,2.35,4.95-1.4,1.85,0,2.41,0,2.41Z"/>
        <g>
          <g>
            <path class="cls-2" d="M12.77,98.65s-1.7-6.58-9.76-5.75l9.5-12.73,6.21,3.66-5.95,14.83Z"/>
            <path class="cls-2" d="M12.71,99.51l-.21-.79c-.07-.26-1.75-6.35-9.47-5.55l-.61.06,10.01-13.42,6.62,3.9-6.34,15.8ZM4.36,92.55c5.58,0,7.75,3.76,8.42,5.34l5.6-13.96-5.8-3.42-9,12.06c.27-.02.53-.02.78-.02Z"/>
          </g>
          <path class="cls-2" d="M12.34,98.93c-1.55,0-6.65-.44-9.57-5.91l.48-.25c3.28,6.16,9.43,5.62,9.5,5.61l.05.54s-.17.02-.46.02Z"/>
        </g>
        <g>
          <path class="cls-2" d="M26.07,89.3l10.65,8.6s.82,1.64-.44,2.97-5.64,6.98-5.64,6.98c0,0-1.12,1.63-2.57.27s-10.77-8.7-10.77-8.7c0,0-.97-.98-.01-2.16.96-1.18,6.02-7.46,6.02-7.46,0,0,1.07-1.09,2.76-.51Z"/>
          <path class="cls-2" d="M29.24,108.94c-.46,0-.92-.21-1.35-.61-1.42-1.34-10.66-8.61-10.75-8.68-.42-.42-.93-1.46-.06-2.54l6.02-7.46c.07-.07,1.23-1.22,3.06-.6l.08.05,10.7,8.64.03.05s.89,1.83-.49,3.27c-1.24,1.3-5.58,6.9-5.62,6.96-.01.02-.57.82-1.45.91-.06,0-.11,0-.17,0ZM25.09,89.4c-.97,0-1.56.57-1.59.6l-6,7.43c-.77.96-.08,1.72,0,1.8.36.28,9.33,7.34,10.76,8.69.36.34.73.5,1.09.46.63-.06,1.07-.69,1.07-.69.19-.24,4.4-5.69,5.67-7.01,1.01-1.06.54-2.34.42-2.61l-10.56-8.53c-.31-.1-.59-.14-.85-.14Z"/>
        </g>
        <g>
          <path class="cls-2" d="M53.85,94.05l-5.03,8.41-17.46-13.18s-.48-3.02,2.98-4.61l19.5,9.38Z"/>
          <path class="cls-2" d="M48.9,102.85l-17.79-13.42-.02-.11s-.47-3.24,3.14-4.9l.12-.05,19.88,9.56-5.33,8.92ZM31.62,89.13l17.12,12.92,4.72-7.9-19.12-9.19c-2.77,1.33-2.76,3.65-2.72,4.16Z"/>
        </g>
        <g>
          <path class="cls-2" d="M68.79,84.92s3.35-1.6,3.97,2.9l-2.08,2.84s1.85,2.51-.32,7.13c-2.16,4.62-11.64,18.92-11.64,18.92l-7.66-5.17,11.4-19.07s.69-2.78,3.84-4.04,2.49-3.5,2.49-3.5Z"/>
          <path class="cls-2" d="M58.8,117.08l-8.1-5.47,11.51-19.25c.1-.37.92-2.95,3.99-4.19,2.87-1.15,2.36-3.09,2.33-3.17l-.06-.22.21-.1c.06-.03,1.43-.67,2.66,0,.91.49,1.48,1.54,1.69,3.11l.02.11-2.04,2.77c.38.66,1.51,3.14-.4,7.23-2.15,4.58-11.57,18.81-11.66,18.95l-.15.23ZM51.42,111.45l7.22,4.88c1.22-1.85,9.49-14.43,11.47-18.66,2.06-4.4.36-6.83.34-6.85l-.12-.16,2.13-2.91c-.2-1.33-.67-2.21-1.4-2.6-.75-.41-1.62-.19-1.99-.06.08.66.02,2.49-2.7,3.58-2.98,1.19-3.67,3.83-3.68,3.86l-.03.07-11.26,18.85Z"/>
        </g>
        <g>
          <path class="cls-2" d="M48.96,105.81s-3.48-1.6-4.99-.89c0,0-2.14-1.39-4.24-1.38s-2.69-1.29-2.69-1.29l-1.78,5.96,11.92,3.21s-.73-.82.48-2.92,1.29-2.69,1.29-2.69Z"/>
          <path class="cls-2" d="M47.92,111.89l-.79-.21-12.19-3.28,2.06-6.91.3.66s.55,1.13,2.41,1.13c.02,0,.05,0,.07,0,1.88,0,3.74,1.05,4.23,1.34,1.66-.61,4.93.88,5.07.95l.18.08-.03.2c0,.07-.12.7-1.32,2.79-1.07,1.87-.51,2.6-.51,2.61l.52.64ZM35.61,108.03l11.13,2.99c-.1-.51-.04-1.36.7-2.65.8-1.39,1.09-2.1,1.2-2.4-1.08-.46-3.48-1.3-4.55-.8l-.14.06-.13-.08s-2.08-1.35-4.09-1.33c-1.4,0-2.19-.53-2.59-.96l-1.54,5.17Z"/>
        </g>
        <g>
          <path class="cls-2" d="M122.45,44.36l-7.23-1.64s-4.9,1.95-6.67,25.03l10.42,2.16,4.58-20.19s1.38-1.73-1.1-5.35Z"/>
          <path class="cls-2" d="M119.17,70.23l-10.91-2.26.02-.24c1.76-22.98,6.63-25.17,6.84-25.26l.08-.03,7.41,1.68.06.09c2.35,3.44,1.36,5.28,1.13,5.62l-4.63,20.4ZM108.84,67.53l9.92,2.06,4.54-19.99.04-.05s1.19-1.62-1.05-4.94l-7.03-1.59c-.56.35-4.8,3.68-6.42,24.52Z"/>
        </g>
        <g>
          <path class="cls-2" d="M177.45.28s2.94,1.18,1.85,3.43l-2.42,1.68.62,1.01-3.23,1.97s-.01,1.59-7.09,5.33c0,0-3.32,2.63-4.05,4.66s-11.47,5.42-11.47,5.42c0,0-5.14-4.79-4.5-8.16.65-3.37,19.81-11.92,19.81-11.92l1.69.75,5.2-3.18,3.58-1Z"/>
          <path class="cls-2" d="M151.59,24.09l-.12-.11c-.21-.2-5.25-4.93-4.58-8.41.11-.55.43-2.23,10.29-7.41,4.82-2.53,9.63-4.68,9.68-4.7l.11-.05,1.67.74,5.15-3.14,3.67-1.02.08.03c.07.03,1.62.66,2.12,1.93.23.59.19,1.22-.12,1.87l-.03.06-2.27,1.57.63,1.02-3.36,2.06c-.17.53-1.18,2.22-7.2,5.39h0s-3.23,2.58-3.92,4.51c-.75,2.1-10.53,5.24-11.64,5.59l-.15.05ZM166.98,4.01c-5.37,2.4-19.04,9.04-19.55,11.67-.56,2.92,3.56,7.08,4.3,7.8,4.27-1.36,10.64-3.83,11.14-5.21.75-2.08,4-4.67,4.14-4.78,6.7-3.54,6.99-5.12,6.99-5.14v-.15s.13-.06.13-.06l3-1.83-.61-1,2.57-1.78c.22-.48.24-.94.08-1.37-.35-.9-1.43-1.45-1.73-1.59l-3.45.96-5.29,3.23-1.71-.76Z"/>
        </g>
        <g>
          <path class="cls-2" d="M139.43,18.42s3.86,7.28,9.59,10.1l-16.73,17.25s-5.14-8.86-10.87-11.37l10.09-11.18s4.47,3.15,7.91-4.81Z"/>
          <path class="cls-2" d="M132.24,46.23l-.18-.31c-.05-.09-5.16-8.81-10.74-11.26l-.34-.15,10.51-11.63.2.14s1.32.9,2.99.42c1.74-.49,3.26-2.22,4.51-5.12l.22-.52.26.5c.04.07,3.88,7.24,9.47,9.99l.33.16-17.23,17.78ZM121.87,34.33c5.07,2.44,9.52,9.44,10.47,11.02l16.23-16.74c-4.79-2.52-8.17-7.93-9.12-9.58-1.29,2.77-2.85,4.43-4.65,4.94-1.53.43-2.76-.11-3.24-.38l-9.7,10.74Z"/>
        </g>
        <g>
          <path class="cls-2" d="M140.95,74.23l-13.81-4.05,10.67-24.09s3.98-1.29,7.67,2.5l-4.53,25.65Z"/>
          <path class="cls-2" d="M141.16,74.58l-14.39-4.22,10.85-24.48.11-.04s4.18-1.29,7.94,2.56l.1.1-.02.14-4.58,25.95ZM127.51,70.01l13.22,3.88,4.45-25.22c-3.17-3.16-6.53-2.52-7.18-2.36l-10.49,23.69Z"/>
        </g>
        <g>
          <path class="cls-2" d="M225.01,172.8s6.32-2.52,7.41-7.73l23.24,19.8s-7.55,3.51-8.31,8.77l-14.82-12.09s1.84-3.88-7.52-8.76Z"/>
          <path class="cls-2" d="M247.55,194.15l-15.35-12.52.09-.19s1.56-3.73-7.4-8.4l-.52-.27.55-.22c.06-.02,6.2-2.53,7.25-7.53l.09-.44,23.9,20.37-.38.18c-.07.03-7.42,3.51-8.16,8.57l-.07.47ZM232.85,181.47l14.32,11.68c.98-4.47,6.5-7.56,8.01-8.33l-22.59-19.25c-1.13,4.19-5.45,6.55-6.96,7.26,7.88,4.26,7.47,7.77,7.22,8.65Z"/>
        </g>
        <g>
          <g>
            <path class="cls-2" d="M227.32,198.71s7.91-.16,9.13-9.51l11.88,14.17-5.81,6.05-15.2-10.71Z"/>
            <path class="cls-2" d="M242.55,209.78l-16.06-11.32.82-.02c.31,0,7.69-.27,8.87-9.28l.08-.61,12.43,14.83-6.14,6.4ZM228.06,198.9l14.42,10.17,5.48-5.71-11.34-13.53c-1.22,7.25-6.59,8.76-8.57,9.07Z"/>
          </g>
          <path class="cls-2" d="M227.58,198.74l-.54-.07c.01-.08,1.1-7.57,9.33-9.74l.14.52c-7.89,2.07-8.92,9.22-8.93,9.29Z"/>
        </g>
        <g>
          <path class="cls-2" d="M258.26,190.94s-2.54-1.54-3.9.17l-.17,2.39h-1.19s0,3.07,0,3.07c0,0-1.36.68-.85,7.17,0,0-.51,3.42-1.86,4.78-1.36,1.37,1.36,10.25,1.36,10.25,0,0,6.78,1.54,9.32-.34s-.17-18.79-.17-18.79l-1.53-.85v-4.95s-1.02-2.9-1.02-2.9Z"/>
          <path class="cls-2" d="M256.83,219.64c-2.54,0-5.07-.56-5.24-.6l-.15-.03-.05-.15c-.28-.93-2.72-9.08-1.29-10.52,1.21-1.22,1.73-4.27,1.78-4.6-.42-5.44.47-6.92.85-7.29v-3.22h1.21l.16-2.22.05-.07c1.19-1.5,3.3-.81,4.25-.23l.08.05,1.06,3.08v4.79l1.5.84.02.13c.28,1.75,2.66,17.13.06,19.05-1.02.76-2.67.99-4.3.99ZM251.86,218.55c1.01.21,6.74,1.3,8.95-.33,1.96-1.45.5-13.64-.26-18.4l-1.55-.87v-5.06l-.97-2.76c-.42-.23-2.34-1.16-3.41.09l-.18,2.56h-1.17v2.97l-.15.07s-1.17.85-.7,6.91v.03s0,.03,0,.03c-.02.14-.54,3.52-1.94,4.93-.89.9.35,6.44,1.38,9.83Z"/>
        </g>
        <g>
          <path class="cls-2" d="M254.57,236.61l.35-1.65s-3.51-4.71-1.84-9.92c0,0-1.74-.64-1.56-1.97l.18-1.33s.68-.57,2.43.64l1.29-.98s5.67,3.54,3.41,9.74c0,0-.6,4.85-2.53,4.39-1.93-.46-1.73,1.08-1.73,1.08Z"/>
          <path class="cls-2" d="M254.51,238.2l-.21-1.56s-.06-.47.17-.87l.16-.75c-.51-.72-3.29-5-1.88-9.83-.51-.25-1.66-.94-1.5-2.15l.2-1.43.08-.07c.08-.07.85-.63,2.59.51l1.28-.98.16.1c.06.04,5.82,3.72,3.53,10.03-.05.37-.49,3.48-1.77,4.38-.33.23-.7.31-1.08.21-.55-.13-.96-.1-1.18.1-.03.03-.05.06-.08.09l-.47,2.22ZM255.65,235.18c.21,0,.45.03.71.09.23.06.45.01.65-.13.94-.66,1.44-3.13,1.55-4.03v-.06c1.97-5.36-2.26-8.7-3.13-9.32l-1.29.99-.16-.11c-1.2-.83-1.82-.76-2.03-.69l-.16,1.19c-.15,1.1,1.37,1.67,1.38,1.68l.24.09-.08.25c-1.61,5.02,1.76,9.64,1.8,9.68l.07.1-.07.35c.15-.05.33-.07.52-.07Z"/>
        </g>
        <g>
          <path class="cls-2" d="M189.13,150.86l.35-1.65s-3.51-4.71-1.84-9.92c0,0-1.74-.64-1.56-1.97l.18-1.33s.68-.57,2.43.64l1.29-.98s5.67,3.54,3.41,9.74c0,0-.6,4.85-2.53,4.39-1.93-.46-1.73,1.08-1.73,1.08Z"/>
          <path class="cls-2" d="M189.07,152.45l-.21-1.56s-.06-.47.17-.87l.16-.75c-.51-.72-3.29-5-1.88-9.83-.51-.25-1.66-.94-1.5-2.15l.2-1.43.08-.07c.08-.07.85-.63,2.59.51l1.28-.98.16.1c.06.04,5.82,3.72,3.53,10.03-.05.37-.49,3.48-1.77,4.38-.33.23-.7.31-1.08.21-.55-.13-.96-.1-1.18.1-.03.03-.05.06-.08.09l-.47,2.22ZM190.21,149.43c.21,0,.45.03.71.09.23.06.45.01.65-.13.94-.66,1.44-3.13,1.55-4.03v-.06c1.97-5.36-2.26-8.7-3.13-9.32l-1.29.99-.16-.11c-1.2-.83-1.82-.76-2.03-.69l-.16,1.19c-.15,1.1,1.37,1.67,1.38,1.68l.24.09-.08.25c-1.61,5.02,1.76,9.64,1.8,9.68l.07.1-.07.35c.15-.05.33-.07.52-.07Z"/>
        </g>
        <g>
          <path class="cls-2" d="M207.08,155.12s-1.85,4.74-.85,8.56l-14.82-.86s2.07-5.98.93-9.67l9.3.21s.33,3.36,5.44,1.76Z"/>
          <path class="cls-2" d="M191.13,163.01l.09-.25c.02-.06,2.04-5.96.93-9.55l-.08-.27,9.76.22.02.18s.11.97,1,1.55c.92.6,2.33.62,4.19.04l.4-.12-.15.39s-1.81,4.73-.85,8.44l.07.27-15.36-.89ZM192.6,153.36c.87,3.32-.55,8.12-.92,9.28l14.29.83c-.72-3.2.38-6.87.79-8.04-1.79.5-3.19.43-4.15-.2-.81-.53-1.06-1.31-1.14-1.66l-8.87-.2Z"/>
        </g>
        <g>
          <g>
            <path class="cls-2" d="M176.69,140.99s-1.7-6.58-9.76-5.75l9.5-12.73,6.21,3.66-5.95,14.83Z"/>
            <path class="cls-2" d="M176.64,141.85l-.21-.79c-.07-.26-1.75-6.35-9.47-5.55l-.61.06,10.01-13.42,6.62,3.9-6.34,15.8ZM168.28,134.89c5.58,0,7.75,3.76,8.42,5.34l5.6-13.96-5.8-3.42-9,12.06c.27-.02.53-.02.78-.02Z"/>
          </g>
          <path class="cls-2" d="M176.26,141.27c-1.55,0-6.65-.44-9.57-5.91l.48-.25c3.28,6.16,9.43,5.62,9.5,5.61l.05.54s-.17.02-.46.02Z"/>
        </g>
        <g>
          <g>
            <path class="cls-2" d="M181.65,164.99s6.61-11.32,1.86-15.05l-4.43-1.95s-4.24-4.05-8.39,11.64l8.27,4.04,2.69,1.32Z"/>
            <path class="cls-2" d="M181.99,166.11l-12.32-6.02.18-.68c2.02-7.63,4.39-11.87,7.07-12.63,1.18-.33,2.14.1,2.62.47l4.42,1.94.09.07c2.28,1.79,2.67,5.11,1.14,9.86-1.08,3.35-2.72,6.18-2.79,6.3l-.4.69ZM171.7,159.17l9.59,4.68c1.82-3.38,4.8-10.63,1.76-13.17l-4.47-1.96-.11-.1s-.45-.37-1.13-.16c-.9.28-3.22,1.88-5.65,10.71Z"/>
          </g>
          <path class="cls-2" d="M172.59,171.17s-.04,0-.05,0h-.22s-.19-.12-.19-.12c-.08-.04-1.85-1.12-2.21-3.42-.34-2.18.67-4.63,3.02-7.3l1.29,1.14c-1.97,2.23-2.87,4.26-2.61,5.88.18,1.12.87,1.8,1.2,2.07.88-.09,4.01-.78,5.36-6.12l1.67.42c-1.82,7.21-6.67,7.44-7.27,7.44Z"/>
        </g>
        <g>
          <path class="cls-2" d="M66.3,80.98l-3.48,3.71-7.41-8.62s.09-1.59,2.02-2.01l8.87,6.91Z"/>
          <path class="cls-2" d="M66.5,80.97l-3.69,3.94-7.55-8.77v-.06s.12-1.7,2.13-2.14h.06s.05.03.05.03l8.98,7ZM62.82,84.49l3.27-3.49-8.7-6.78c-1.56.37-1.81,1.55-1.85,1.82l7.27,8.45Z"/>
        </g>
        <g>
          <path class="cls-2" d="M152.36,101.14l10.65,8.6s.82,1.64-.44,2.97-5.64,6.98-5.64,6.98c0,0-1.12,1.63-2.57.27s-10.77-8.7-10.77-8.7c0,0-.97-.98-.01-2.16.96-1.18,6.02-7.46,6.02-7.46,0,0,1.07-1.09,2.76-.51Z"/>
          <path class="cls-2" d="M155.53,120.78c-.46,0-.92-.21-1.35-.61-1.42-1.34-10.66-8.61-10.75-8.68-.42-.42-.93-1.46-.06-2.54l6.02-7.46c.07-.07,1.23-1.22,3.06-.6l.08.05,10.7,8.64.03.05s.89,1.83-.49,3.27c-1.24,1.3-5.58,6.9-5.62,6.96-.01.02-.57.82-1.45.91-.06,0-.11,0-.17,0ZM151.38,101.24c-.97,0-1.56.57-1.59.6l-6,7.43c-.77.96-.08,1.72,0,1.8.36.28,9.33,7.34,10.76,8.69.36.34.73.5,1.09.46.63-.06,1.07-.69,1.07-.69.19-.24,4.4-5.69,5.67-7.01,1.01-1.06.54-2.34.42-2.61l-10.56-8.53c-.31-.1-.59-.14-.85-.14Z"/>
        </g>
        <g>
          <path class="cls-2" d="M99.39,129.7l-1.66-.27s-4.55,3.71-9.83,2.28c0,0-.56,1.77-1.89,1.64l-1.33-.12s-.6-.66.53-2.46l-1.04-1.24s3.29-5.83,9.58-3.84c0,0,4.87.38,4.5,2.33-.37,1.95,1.15,1.68,1.15,1.68Z"/>
          <path class="cls-2" d="M100.98,129.68l-1.55.28s-.47.08-.87-.13l-.76-.12c-.7.54-4.85,3.51-9.74,2.31-.22.52-.86,1.7-2.09,1.59l-1.44-.13-.07-.08c-.07-.08-.67-.82.4-2.61l-1.04-1.24.09-.16c.03-.06,3.46-5.98,9.87-3.97.37.03,3.5.34,4.45,1.57.25.32.34.68.26,1.07-.11.56-.05.96.15,1.18.03.03.06.05.09.07l2.24.37ZM97.91,128.68c0-.21.01-.45.06-.72.05-.23,0-.45-.16-.65-.7-.91-3.19-1.3-4.1-1.37h-.06c-5.44-1.73-8.59,2.65-9.17,3.54l1.04,1.24-.1.17c-.78,1.23-.67,1.85-.59,2.06l1.19.11c1.1.1,1.61-1.44,1.61-1.46l.08-.25.25.07c5.08,1.38,9.55-2.19,9.59-2.23l.09-.08.35.06c-.05-.15-.09-.32-.1-.51Z"/>
        </g>
        <g>
          <path class="cls-2" d="M145.94,85.89l.26-1.34s-2.64-3.84-1.38-8.09c0,0-1.31-.52-1.17-1.6l.14-1.08s.52-.47,1.83.52l.97-.8s4.28,2.89,2.57,7.94c0,0-.45,3.95-1.91,3.58s-1.3.88-1.3.88Z"/>
          <path class="cls-2" d="M145.9,87.19l-.16-1.27s-.04-.38.13-.71l.12-.61c-.38-.59-2.48-4.08-1.41-8.02-.39-.2-1.25-.77-1.13-1.76l.15-1.17.06-.05c.06-.06.64-.52,1.95.42l.97-.8.12.08s4.38,3.03,2.66,8.18c-.04.3-.37,2.84-1.34,3.57-.25.19-.53.25-.82.17-.42-.11-.72-.08-.89.08-.02.02-.04.05-.06.07l-.35,1.81ZM146.75,84.72c.16,0,.34.02.54.08.17.05.34,0,.49-.11.71-.53,1.08-2.55,1.17-3.29v-.05c1.49-4.37-1.7-7.09-2.36-7.59l-.97.8-.12-.09c-.9-.68-1.37-.62-1.53-.56l-.12.97c-.11.9,1.03,1.36,1.04,1.37l.18.07-.06.2c-1.21,4.09,1.33,7.85,1.35,7.89l.05.08-.06.29c.12-.04.25-.06.39-.06Z"/>
        </g>
        <g>
          <g>
            <path class="cls-2" d="M202.19,121.27s-2.58,4.28,3.48,7.39l-13.86,2.63-2.21-4.7,12.59-5.32Z"/>
            <path class="cls-2" d="M202.71,120.84l-.31.52c-.1.17-2.42,4.17,3.39,7.16l.46.24-14.61,2.77-2.36-5.01,13.42-5.67ZM204.53,128.25c-3.87-2.46-3.23-5.44-2.79-6.58l-11.85,5,2.07,4.4,13.13-2.49c-.19-.11-.38-.22-.55-.33Z"/>
          </g>
          <path class="cls-2" d="M202.65,121.31c1.07.68,4.36,3.17,3.26,7.39l-.48-.07c1.24-4.75-3.33-7.18-3.38-7.2l.27-.31s.13.07.33.19Z"/>
        </g>
        <g>
          <path class="cls-2" d="M15.07,242.76l.23-1.11s-2.36-3.17-1.24-6.68c0,0-1.17-.43-1.05-1.32l.12-.89s.46-.38,1.63.43l.87-.66s3.82,2.38,2.29,6.55c0,0-.4,3.26-1.7,2.95s-1.16.72-1.16.72Z"/>
          <path class="cls-2" d="M15.03,243.84l-.14-1.05s-.04-.32.11-.58l.11-.51c-.34-.48-2.22-3.36-1.26-6.62-.35-.17-1.12-.63-1.01-1.45l.13-.96.05-.05c.06-.05.57-.42,1.74.35l.86-.66.11.07s3.91,2.5,2.37,6.75c-.03.25-.33,2.34-1.19,2.94-.22.16-.47.21-.73.14-.37-.09-.65-.06-.79.07-.02.02-.04.04-.05.06l-.31,1.49ZM15.79,241.8c.14,0,.3.02.48.06.16.04.3,0,.44-.09.63-.44.97-2.11,1.04-2.71v-.04c1.33-3.6-1.52-5.85-2.1-6.27l-.87.66-.11-.08c-.8-.56-1.22-.51-1.36-.46l-.11.8c-.1.74.92,1.12.93,1.13l.16.06-.05.17c-1.08,3.37,1.18,6.48,1.21,6.51l.05.07-.05.24c.1-.03.22-.05.35-.05Z"/>
        </g>
      </g>
      <g>
        <path class="cls-1" d="M203.89,56.87l-7.7-23.96h8.45l3.85,12.8,3.45-12.8h8.1l-7.55,23.96v16.56h-8.6v-16.56Z"/>
        <path class="cls-1" d="M222.09,60.67v-15.06c0-8.35,3.05-13.25,12.16-13.25s12.25,4.9,12.25,13.25v15.06c0,8.35-3.1,13.36-12.25,13.36s-12.16-5-12.16-13.36ZM237.35,62.92v-19.51c0-2.4-.3-4.75-3.1-4.75-2.65,0-3,2.35-3,4.75v19.51c0,2.3.2,4.75,3,4.75s3.1-2.45,3.1-4.75Z"/>
        <path class="cls-1" d="M251.66,60.87v-27.96h8.85v29.31c0,2.55.3,5.35,3.15,5.35s3.1-2.8,3.1-5.35v-29.31h8.9v27.96c0,8.5-2.7,13.16-12,13.16s-12-4.65-12-13.16Z"/>
        <path class="cls-1" d="M263.36,92.94h9.6l4.45,23.56,4.8-23.56h9.25l.7,40.51h-6.35l-.75-26.96-4.7,26.96h-5.65l-5-27.16-.6,27.16h-6.45l.7-40.51Z"/>
        <path class="cls-1" d="M303.72,92.94h10.2l7.55,40.51h-8.25l-1.35-8.55h-5.95l-1.4,8.55h-8.45l7.65-40.51ZM311.03,119.55l-2.15-15.81-2.15,15.81h4.3Z"/>
        <path class="cls-1" d="M327.08,99.59h-6.1v-6.65h21.16v6.65h-6.05v33.86h-9v-33.86Z"/>
        <path class="cls-1" d="M349.34,99.59h-6.1v-6.65h21.16v6.65h-6.05v33.86h-9v-33.86Z"/>
        <path class="cls-1" d="M367.95,92.94h18.21v6.1h-9.25v10.05h7.05v6.2h-7.05v12.1h9.35v6.05h-18.31v-40.51Z"/>
        <path class="cls-1" d="M390.31,92.94h11.15c8.15,0,13.46,2.2,13.46,10.7,0,5-.95,8.3-4.95,10.2l5.55,19.61h-9.25l-4.45-18.16h-2.55v18.16h-8.95v-40.51ZM401.76,110.14c3.75,0,4.85-2.1,4.85-5.7s-1.05-5.5-4.45-5.5h-2.9v11.2h2.5Z"/>
        <path class="cls-1" d="M419.62,125.75h7.7v7.7h-7.7v-7.7Z"/>
      </g>
      <path class="cls-2" d="M7.07,80.79c-2.21-.13-4.96,11.55-4.96,11.55,0,0-1.49.13-2.08-1.01s5.93-11.36,5.93-11.36c0,0-.47-.51-.77-1.51s2.91-4.83,2.91-4.83l-.83,2.89,1.89-2.43-1.01,3.26,1.91-2.76-.8,2.39,1.65-1.93s-.28,3.67-1.82,5.53c0,0-.29.31-2.03.21Z"/>
      <path class="cls-2" d="M10.76,72.69c.47,3.26,3.76,4.75,6.97-1.99,0,0,12.86-3.19,13.42-4.09s-.73-2.54-.73-2.54c0,0-9.75,3.13-12.96,5.39,0,0-7.17-.03-6.7,3.23Z"/>
      <path class="cls-2" d="M67.58,150.93s-.03.52-1.46,1.62c-1.82,1.4,3.39,15.16,3.39,15.16,0,0-1.09,1.16-2.27.42s-2.5-15.64-2.5-15.64"/>
      <path class="cls-2" d="M64.73,152.48s-.69-.19-1.55-1c-.87-.8-.76-6.92-.76-6.92l1.17,3.5-.05-3.78,1.26,4-.24-4.13.88,2.98.08-3.09s2.09,3.91,2.05,6.87"/>
      <path class="cls-2" d="M61.21,136.46c2.61,1.62,5.65.16,2.75-6.18,0,0,5.43-11.11,5.12-12.05s-2.25-1-2.25-1c0,0-3.61,8.85-3.91,12.5,0,0-4.32,5.11-1.71,6.73Z"/>
      <path class="cls-2" d="M151.16,186.79s-.5.38-2.61-.05c-2.69-.54-11.02,14.97-11.02,14.97,0,0-1.91-.07-2.16-1.72s12.16-14.55,12.16-14.55"/>
      <path class="cls-2" d="M147.52,185.44s-.37-.77-.32-2.19,5.65-6.12,5.65-6.12l-2.25,3.81,3.37-3.01-2.62,4.28,3.54-3.46-2,3.14,2.86-2.36s-1.89,4.96-4.59,7.25"/>
      <path class="cls-2" d="M119.56,97.83c-2.31-3.42-7.15-2.76-7.51,7.29,0,0-14.13,12.9-14.35,14.34-.22,1.44,2.24,2.4,2.24,2.4,0,0,10.34-10.6,13.08-15.51,0,0,8.84-5.11,6.53-8.53Z"/>
      <path class="cls-2" d="M154.99,32.82s-.41.29-2.29-.18c-2.39-.61-8.86,12.15-8.86,12.15,0,0-1.67-.16-1.99-1.58s9.87-11.73,9.87-11.73"/>
      <path class="cls-2" d="M151.73,31.48s-.36-.68-.4-1.88,4.62-4.91,4.62-4.91l-1.76,3.12,2.8-2.38-2.07,3.51,2.91-2.76-1.59,2.56,2.38-1.86s-1.39,4.12-3.63,5.93"/>
      <path class="cls-2" d="M107.76,78.67s-.51.04-1.87-1.33c-1.74-1.75-13.85,5.86-13.85,5.86,0,0-1.35-1-.89-2.38.46-1.38,14.51-4.98,14.51-4.98"/>
      <path class="cls-2" d="M105.66,75.84s.04-.77.62-1.82c.59-1.05,6.49-1.83,6.49-1.83l-3.12,1.77,3.62-.6-3.58,1.94,3.92-.86-2.68,1.38,2.99-.37s-3.31,2.82-6.17,3.21"/>
      <path class="cls-2" d="M148.17,254.78c3.83-1.76,4.95-5.86-3.81-6.68,0,0-6.45-12.51-7.64-12.77s-2.91,1.76-2.91,1.76c0,0,5.74,9.21,9.12,11.77,0,0,1.42,7.68,5.25,5.92Z"/>
      <path class="cls-2" d="M181.54,280.48c-.01-3.16,2.59-5.15,6.16.63,0,0,11.3.7,11.89,1.45s-.3,2.53-.3,2.53c0,0-8.66-1.2-11.66-2.76,0,0-6.08,1.32-6.09-1.84Z"/>
      <path class="cls-2" d="M173.36,254.34s.4-.33,2.18-.05c2.27.36,8.67-12.89,8.67-12.89,0,0,1.59,0,1.87,1.36.27,1.37-9.63,12.58-9.63,12.58"/>
      <path class="cls-2" d="M176.45,255.34s.33.63.35,1.81-4.5,5.31-4.5,5.31l1.74-3.26-2.71,2.63,2.04-3.67-2.83,3.01,1.56-2.69-2.3,2.07s1.4-4.21,3.57-6.22"/>
      <path class="cls-2" d="M78.74,185.84c2.65-1.29,3.46-4.09-2.57-4.41,0,0-4.34-8.28-5.16-8.42s-2.02,1.27-2.02,1.27c0,0,3.88,6.07,6.19,7.71,0,0,.91,5.15,3.57,3.86Z"/>
      <path class="cls-2" d="M241.13,215.44s-.38-.36-.32-2.16c.08-2.29-13.85-7.03-13.85-7.03,0,0-.2-1.58,1.12-2.02s13.66,8.03,13.66,8.03"/>
      <path class="cls-2" d="M241.74,212.26s.59-.41,1.76-.57,5.82,3.82,5.82,3.82l-3.45-1.33,2.94,2.37-3.89-1.57,3.34,2.44-2.86-1.22,2.34,2.03s-4.35-.87-6.61-2.79"/>
      <path class="cls-2" d="M213.23,226.44c3.14-2.79,2.57-7.26-6.64-5.82,0,0-11.73-11.09-13.04-11.04s-2.21,2.55-2.21,2.55c0,0,9.64,7.91,14.12,9.63,0,0,4.63,7.46,7.77,4.67Z"/>
    </g>
  </g>
</svg>