<svg width="46" height="47" viewBox="0 0 46 47" fill="none" xmlns="http://www.w3.org/2000/svg">
<path d="M18.8243 3.3875H27.3378C28.1215 3.3875 28.7568 4.03389 28.7568 4.83125V7.71875H17.4054V4.83125C17.4054 4.03389 18.0407 3.3875 18.8243 3.3875ZM31.5946 7.71875V4.83125C31.5946 2.43917 29.6888 0.5 27.3378 0.5H18.8243C16.4734 0.5 14.5676 2.43917 14.5676 4.83125V7.71875H7.48902C7.47938 7.71865 7.46972 7.71865 7.46003 7.71875H4.63514C3.85149 7.71875 3.21622 8.36514 3.21622 9.1625C3.21622 9.95986 3.85149 10.6062 4.63514 10.6062H6.16304L8.58303 41.3855C8.819 44.3868 11.2816 46.7 14.2406 46.7H31.9215C34.8806 46.7 37.3432 44.3868 37.5791 41.3855L39.9991 10.6062H41.527C42.3107 10.6062 42.9459 9.95986 42.9459 9.1625C42.9459 8.36514 42.3107 7.71875 41.527 7.71875H38.7021C38.6924 7.71865 38.6828 7.71865 38.6731 7.71875H31.5946ZM37.1522 10.6062L34.7503 41.1553C34.6324 42.6559 33.4011 43.8125 31.9215 43.8125H14.2406C12.7611 43.8125 11.5298 42.6559 11.4118 41.1553L9.00994 10.6062H37.1522ZM15.9032 13.4962C16.6855 13.4494 17.3569 14.0567 17.403 14.8527L18.8219 39.3965C18.8679 40.1925 18.271 40.8757 17.4887 40.9225C16.7064 40.9693 16.035 40.362 15.9889 39.566L14.57 15.0223C14.524 14.2263 15.1209 13.5431 15.9032 13.4962ZM30.259 13.4962C31.0413 13.5431 31.6382 14.2263 31.5921 15.0223L30.1732 39.566C30.1272 40.362 29.4557 40.9693 28.6734 40.9225C27.8911 40.8757 27.2943 40.1925 27.3403 39.3965L28.7592 14.8527C28.8052 14.0567 29.4767 13.4494 30.259 13.4962ZM23.0811 13.4938C23.8647 13.4938 24.5 14.1401 24.5 14.9375V39.4813C24.5 40.2786 23.8647 40.925 23.0811 40.925C22.2974 40.925 21.6622 40.2786 21.6622 39.4813V14.9375C21.6622 14.1401 22.2974 13.4938 23.0811 13.4938Z" fill="#FEFCF6"/>
</svg>
