<svg width="55" height="56" viewBox="0 0 55 56" fill="none" xmlns="http://www.w3.org/2000/svg">
<path d="M20.1529 3.88243C20.9529 4.37081 21.2123 5.42657 20.7323 6.24054L12.1321 20.825H43.3274L34.7272 6.24054C34.2473 5.42657 34.5067 4.37081 35.3066 3.88243C36.1066 3.39405 37.1442 3.65799 37.6242 4.47196L47.2672 20.825H51.3784C53.2442 20.825 54.7568 22.364 54.7568 24.2625V27.7C54.7568 29.5985 53.2442 31.1375 51.3784 31.1375V46.6071C51.3784 51.3535 47.5968 55.2 42.9325 55.2H12.5271C7.86275 55.2 4.08111 51.3535 4.08111 46.6071V31.1375C2.21528 31.1375 0.702728 29.5985 0.702728 27.7V24.2625C0.702728 22.364 2.21528 20.825 4.08111 20.825H8.19227L17.8353 4.47196C18.3153 3.65799 19.3529 3.39405 20.1529 3.88243ZM7.45949 31.1375V46.6071C7.45949 49.4545 9.72805 51.7625 12.5271 51.7625H42.9325C45.7315 51.7625 48 49.4545 48 46.6071V31.1375H7.45949ZM4.08111 24.2625V27.7H51.3784V24.2625H4.08111ZM14.2162 34.575C15.1492 34.575 15.9054 35.3445 15.9054 36.2937V46.6062C15.9054 47.5555 15.1492 48.325 14.2162 48.325C13.2833 48.325 12.5271 47.5555 12.5271 46.6062V36.2937C12.5271 35.3445 13.2833 34.575 14.2162 34.575ZM20.973 34.575C21.9059 34.575 22.6622 35.3445 22.6622 36.2937V46.6062C22.6622 47.5555 21.9059 48.325 20.973 48.325C20.0401 48.325 19.2838 47.5555 19.2838 46.6062V36.2937C19.2838 35.3445 20.0401 34.575 20.973 34.575ZM27.7298 34.575C28.6627 34.575 29.4189 35.3445 29.4189 36.2937V46.6062C29.4189 47.5555 28.6627 48.325 27.7298 48.325C26.7968 48.325 26.0406 47.5555 26.0406 46.6062V36.2937C26.0406 35.3445 26.7968 34.575 27.7298 34.575ZM34.4865 34.575C35.4194 34.575 36.1757 35.3445 36.1757 36.2937V46.6062C36.1757 47.5555 35.4194 48.325 34.4865 48.325C33.5536 48.325 32.7973 47.5555 32.7973 46.6062V36.2937C32.7973 35.3445 33.5536 34.575 34.4865 34.575ZM41.2433 34.575C42.1762 34.575 42.9325 35.3445 42.9325 36.2937V46.6062C42.9325 47.5555 42.1762 48.325 41.2433 48.325C40.3104 48.325 39.5541 47.5555 39.5541 46.6062V36.2937C39.5541 35.3445 40.3104 34.575 41.2433 34.575Z" fill="#FEFCF6"/>
</svg>
