<svg width="42" height="42" viewBox="0 0 42 42" fill="none" xmlns="http://www.w3.org/2000/svg">
<path d="M28.875 14.4605V10.6848H13.125C7.32601 10.6848 2.625 15.2965 2.625 20.9852C2.625 22.632 3.01797 24.1851 3.71573 25.5625C4.03832 26.1992 3.77361 26.972 3.12448 27.2885C2.47534 27.6049 1.6876 27.3453 1.36501 26.7085C0.490887 24.9829 0 23.0385 0 20.9852C0 13.8743 5.87626 8.1097 13.125 8.1097H28.875V4.33397C28.875 3.78815 29.5239 3.48998 29.9514 3.83941L36.145 8.90269C36.4599 9.16007 36.4599 9.63443 36.145 9.89181L29.9514 14.9551C29.5239 15.3045 28.875 15.0063 28.875 14.4605Z" fill="#FEFCF6"/>
<path d="M38.8755 14.682C39.5247 14.3655 40.3124 14.6252 40.635 15.262C41.5091 16.9875 42 18.932 42 20.9852C42 28.0962 36.1237 33.8608 28.875 33.8608H13.125V37.6365C13.125 38.1823 12.4761 38.4805 12.0486 38.1311L5.85497 33.0678C5.54013 32.8104 5.54014 32.336 5.85497 32.0787L12.0486 27.0154C12.4761 26.666 13.125 26.9641 13.125 27.5099V31.2857H28.875C34.674 31.2857 39.375 26.674 39.375 20.9852C39.375 19.3385 38.982 17.7854 38.2843 16.408C37.9617 15.7712 38.2264 14.9985 38.8755 14.682Z" fill="#FEFCF6"/>
</svg>
